<?xml version="1.0" encoding="UTF-8" standalone="no"?>
<svg
   xmlns:dc="http://purl.org/dc/elements/1.1/"
   xmlns:cc="http://creativecommons.org/ns#"
   xmlns:rdf="http://www.w3.org/1999/02/22-rdf-syntax-ns#"
   xmlns:svg="http://www.w3.org/2000/svg"
   xmlns="http://www.w3.org/2000/svg"
   viewBox="0 0 3390.6667 2166"
   height="2166"
   width="3390.6667"
   xml:space="preserve"
   id="svg2"
   version="1.1"><metadata
     id="metadata8"><rdf:RDF><cc:Work
         rdf:about=""><dc:format>image/svg+xml</dc:format><dc:type
           rdf:resource="http://purl.org/dc/dcmitype/StillImage" /></cc:Work></rdf:RDF></metadata><defs
     id="defs6" /><g
     transform="matrix(1.3333333,0,0,-1.3333333,0,2166)"
     id="g10"><g
       transform="scale(0.1)"
       id="g12"><g
         transform="scale(1.56012)"
         id="g14"><path
           id="path16"
           style="fill:#f6f5d9;fill-opacity:1;fill-rule:nonzero;stroke:none"
           d="M 16300,0 H 0 V 10412.6 H 16300 V 0" /></g><g
         transform="scale(1.25307)"
         id="g18"><path
           id="path20"
           style="fill:#f4bbda;fill-opacity:1;fill-rule:nonzero;stroke:none"
           d="m 16300,5366.83 c 0,-1456.67 -507.5,-2794.74 -1355.3,-3847.2 -134.2,-166.71 -277.1,-326.16 -427.8,-477.86 -16.4,-16.6 -33,-33.12 -49.7,-49.486 -186.3,-3.588 -376.8,-6.943 -571.1,-10.054 -1142.8,-18.355 -2417.1,-28.57 -3761,-28.57 -1321.45,0 -2575.81,9.897 -3703.92,27.691 -194.24,3.033 -384.66,6.384 -571.08,9.817 -17.4,17.072 -34.71,34.312 -51.95,51.632 -150.67,151.79 -293.44,311.32 -427.67,478.11 -847.2,1052.22 -1354.36,2389.81 -1354.36,3845.92 0,3389.36 2747.58,6136.97 6136.98,6136.97 3389.3,0 6136.9,-2747.61 6136.9,-6136.97" /></g><g
         transform="scale(1.46472)"
         id="g22"><path
           id="path24"
           style="fill:#182340;fill-opacity:1;fill-rule:nonzero;stroke:none"
           d="m 16300,1078.7 c 0,-98.788 -1583.1,-184.88 -3923.3,-229.804 -159.4,-3.069 -322.4,-5.939 -488.6,-8.601 -977.6,-15.702 -2067.89,-24.442 -3217.52,-24.442 -1130.52,0 -2203.63,8.468 -3168.72,23.69 -166.18,2.595 -329.08,5.462 -488.56,8.398 -2367,44.652 -3972.15,131.219 -3972.15,230.759 0,93.6 1421.57,175.87 3561.83,222.43 119.75,2.6 241.75,5.05 365.87,7.44 1096.25,21.03 2358.47,32.98 3701.73,32.98 1362.42,0 2641.52,-12.29 3748.62,-33.86 124.2,-2.39 246.2,-4.92 365.9,-7.65 2114.1,-46.7 3514.9,-128.35 3514.9,-221.34" /></g><g
         transform="scale(1.3885)"
         id="g26"><path
           id="path28"
           style="fill:#f9a772;fill-opacity:1;fill-rule:nonzero;stroke:none"
           d="m 15576.2,8561.92 42,28.74 c 21,14.4 48.7,8.93 63.7,-12.46 l 38.3,-55.02 v -147.22 h -144 z m 194.5,7.71 41.9,28.81 c 21.1,14.33 48.8,8.93 63.8,-12.54 l 38.3,-54.95 v -147.21 h -144 z M 14445.5,3838.68 h -50.4 v 158.45 l 8.3,66.4 c 7.3,26.43 23.3,26.07 30.4,-0.65 l 11.7,-58.55 z m -100.9,0 h -122.4 v 158.45 l 20.3,66.4 c 17.6,26.43 56.6,26.07 73.8,-0.65 l 28.3,-58.55 z m -165.6,7.21 h -50.4 v 165.64 l 11.7,58.56 c 7.1,26.71 23.1,27.08 30.3,0.64 l 8.4,-66.4 z m -3255.3,2239.83 8.3,66.4 c 7.3,26.43 23.3,26.07 30.4,-0.65 l 11.7,-58.55 v -165.65 h -50.4 z m -36,-158.45 h -79.2 v 158.45 l 13.1,66.4 c 11.3,26.43 36.6,26.07 47.7,-0.65 l 18.4,-58.55 z m -115.3,0 h -50.4 v 158.45 l 8.4,66.4 c 7.3,26.43 23.2,26.07 30.4,-0.65 l 11.6,-58.55 z m -3248.08,144.04 8.36,66.41 c 7.27,26.43 23.26,26.07 30.39,-0.65 l 11.67,-58.55 v -165.65 h -50.42 z m -36.01,-158.44 h -79.22 v 158.44 l 13.11,66.41 c 11.38,26.43 36.66,26.07 47.75,-0.65 l 18.36,-58.55 z m -115.23,0 h -50.41 v 158.44 l 8.35,66.41 c 7.27,26.43 23.27,26.07 30.39,-0.65 l 11.67,-58.55 z M 4139.37,3838.68 h -50.42 v 158.45 l 8.36,66.4 c 7.27,26.43 23.26,26.07 30.39,-0.65 l 11.67,-58.55 z m -93.63,0 h -122.43 v 158.45 l 20.24,66.4 c 17.64,26.43 56.6,26.07 73.82,-0.65 l 28.37,-58.55 z m -165.64,7.21 h -50.42 v 165.64 l 11.67,58.56 c 7.13,26.71 23.12,27.08 30.39,0.64 l 8.36,-66.4 z M 2749.38,8375.96 h -144.04 v 136.84 l 38.31,51.14 c 14.98,19.88 42.71,24.99 63.74,11.59 l 41.99,-26.72 z m -194.46,7.21 H 2410.88 V 8520 l 38.31,51.14 c 14.99,19.88 42.71,24.99 63.74,11.6 l 41.99,-26.73 z M 16278.4,5858.85 h 21.6 v 36.01 h -21.6 v 108.03 h -158.5 l -50.4,1807.71 h 28.8 v 57.62 h -36 v 144.04 c 0,0 85.1,120.49 163.8,115.38 0.7,0 1.2,-0.07 1.9,-0.15 h 14.4 v 36.01 h -28.8 v 136.84 h -165.7 l 14.4,432.12 144.1,79.23 -7.2,28.81 -122.5,72.02 h -43.2 v 64.81 c 0,0 50.4,201.66 -165.6,259.28 0,0 -102.1,108.46 -102.1,313.36 0,6.05 0.1,12.1 0.3,18.29 v 0.65 c 0.2,5.83 0.4,11.67 0.8,17.65 v 0.57 c -0.1,-1.01 -0.2,-2.3 -0.4,-3.89 v -0.43 c -0.2,-2.16 -0.4,-4.83 -0.7,-7.92 -0.6,-5.41 -1.2,-12.17 -2.1,-20.1 -0.3,-3.02 -0.7,-6.26 -1,-9.65 -0.3,-2.3 -0.6,-4.61 -0.9,-7.05 -0.4,-2.96 -0.7,-6.06 -1.2,-9.22 0,-0.72 -0.1,-1.52 -0.2,-2.31 -0.3,-2.23 -0.6,-4.46 -0.9,-6.77 -0.1,-0.5 -0.2,-1.08 -0.2,-1.58 -0.6,-4.11 -1.2,-8.29 -1.8,-12.53 -2.5,-17.94 -5.6,-37.81 -9.5,-58.48 -1.4,-7.35 -2.8,-14.84 -4.4,-22.33 -0.5,-2.88 -1.2,-5.76 -1.8,-8.64 -1.2,-5.76 -2.5,-11.6 -3.8,-17.36 -0.7,-2.88 -1.4,-5.84 -2.1,-8.72 -1,-4.39 -2.1,-8.71 -3.3,-13.03 -0.7,-2.95 -1.5,-5.91 -2.3,-8.79 -5.8,-21.89 -12.5,-43.28 -20.2,-63.09 -2,-4.89 -3.9,-9.65 -5.9,-14.33 -1,-2.45 -2.1,-4.9 -3.3,-7.35 -1,-2.44 -2.2,-4.82 -3.3,-7.2 -3.1,-6.48 -6.4,-12.6 -9.8,-18.43 -0.9,-1.59 -1.8,-3.1 -2.8,-4.54 -4.7,-7.85 -9.7,-14.98 -15.1,-21.25 -1,-1.22 -2.1,-2.52 -3.2,-3.67 -3,-3.39 -6.2,-6.55 -9.4,-9.36 -1.3,-1.16 -2.7,-2.24 -4,-3.32 -4.6,-3.6 -9.3,-6.55 -14.2,-8.93 -1.5,-0.72 -3,-1.37 -4.5,-2.01 -3.7,-1.44 -7.4,-2.6 -11.3,-3.24 -1.5,-0.36 -3.1,-0.58 -4.7,-0.65 -3.2,-0.43 -6.6,-0.58 -10,-0.36 0,0 -230.5,-36.01 -158.4,-295.29 v -50.41 l -165.7,-100.83 v -21.61 l 122.4,-72.02 v -388.91 l -158.4,-50.41 v -108.03 l -14.4,-28.81 c 0,0 1.3,-0.57 3.7,-1.66 0.8,-0.36 1.8,-0.72 2.9,-1.22 1.4,-0.65 3.1,-1.37 4.9,-2.23 35.6,-16.2 143.3,-68.13 161.3,-110.12 21.7,-50.41 7.3,-136.84 7.3,-136.84 h -50.5 l 7.2,-28.81 36,-14.4 -43.2,-1793.31 h -151.2 v -129.63 h -36 v -21.61 c 0,0 180,-50.41 165.6,-144.04 v -122.44 h -36 v -28.8 h 36 l -57.6,-1822.12 h -698.6 v 36.01 h -115.2 v 417.72 h 64.8 v 28.81 h -57.6 v 64.82 h -43.2 c 0,0 1.3,3.89 2.8,10.8 7.3,35.07 16.8,147.42 -139.7,219.66 0,0 -201.6,-21.6 -187.2,-216.06 h -28.8 v -64.82 h -43.2 v -28.81 h 57.6 v -410.51 h -115.3 v -43.21 H 13448 v 295.28 h 36 v 115.23 h -43.2 v 64.82 c 0,0 388.9,749.01 -439.3,1123.52 l 50.4,36.01 c 0,0 -129.7,-14.41 -497,417.72 h -0.2 l -2.6,46.52 c 29.3,11.52 49.7,36.3 49.7,65.11 0,31.26 -24,57.83 -57.4,67.77 l -5.2,88.94 c 27.7,6.13 48.2,27.16 48.2,52.15 0,26.79 -23.5,48.97 -54.3,53.22 l -14.2,245.66 -14.2,-247.03 c -27.1,-6.41 -47,-27.22 -47,-51.85 0,-22.83 17,-42.28 41.1,-50.2 l -5.2,-89.02 c -37.2,-8.07 -64.7,-36.15 -64.7,-69.64 0,-31.12 23.7,-57.48 56.8,-67.56 l -2.6,-44.07 h -0.2 c 0,0 -367.3,-496.94 -482.5,-417.72 l 50.4,-43.21 c 0,0 -763.4,-302.49 -460.9,-1109.12 v -50.41 h -36 v -136.84 h 43.2 v -266.48 h -64.8 v -93.62 h -561.8 v 1375.59 h 43.2 v 43.21 h -50.4 v 417.72 h 36 v 43.21 h -36 c 0,0 0,223.26 158.4,316.89 0,0 -21.6,36.01 -115.2,28.81 v 295.28 h 72 v 43.21 h -64.8 c 0,0 14.4,223.26 -180,223.26 -194.5,0 -144.1,-244.86 -144.1,-244.86 h -79.2 v -43.22 h 72 l 7.2,-288.08 c -72,21.61 -93.6,-36.01 -93.6,-36.01 165.6,-64.82 144,-302.48 144,-302.48 h -21.6 v -43.22 h 36 v -115.23 c -93.6,21.61 -115.2,-57.61 -115.2,-57.61 -79.2,122.43 -158.4,-7.21 -158.4,-7.21 57.6,439.33 -806.67,921.86 -806.67,921.86 l 100.83,43.22 C 9609.31,6240.56 9206,6852.73 9206,6852.73 h -14.55 l -4.82,82.97 c 50.7,19.95 85.92,62.81 85.92,112.57 0,54.09 -41.41,99.96 -99.18,117.18 l -8.93,153.69 c 47.9,10.66 83.19,46.88 83.19,90.09 0,46.39 -40.55,84.77 -93.7,92.05 l -24.56,424.56 -24.63,-426.87 c -46.82,-11.23 -81.17,-47.1 -81.17,-89.74 0,-39.39 29.46,-73.1 70.94,-86.78 l -8.86,-153.83 c -64.31,-13.9 -111.84,-62.37 -111.84,-120.35 0,-53.73 40.9,-99.32 98.09,-116.74 l -4.54,-78.8 h -27.01 C 8709.06,6319.78 8485.8,6283.77 8485.8,6283.77 l 57.61,-28.8 c -604.97,-295.29 -741.81,-871.45 -741.81,-871.45 -79.22,43.21 -136.84,-28.81 -136.84,-28.81 -50.41,86.43 -115.23,21.61 -115.23,21.61 v 151.24 h 36.01 v 86.42 c 14.41,244.87 151.24,252.08 151.24,252.08 21.61,72.02 -129.63,50.41 -129.63,50.41 v 252.07 h 72.02 v 50.42 h -57.62 c 50.42,208.85 -151.24,288.08 -151.24,288.08 l -28.81,172.85 -7.2,-180.06 c -172.85,-72.02 -151.24,-280.87 -151.24,-280.87 h -72.02 v -57.62 h 86.42 v -244.87 c -108.03,21.61 -115.23,-50.41 -115.23,-50.41 187.25,-64.82 129.63,-266.48 129.63,-266.48 v -79.22 h 43.22 v -410.52 h -50.42 v -57.61 h 57.62 V 3770.26 h -713 v 403.32 h 28.8 v 50.41 h -36.01 c 367.31,734.61 -475.33,1137.92 -475.33,1137.92 28.81,0 79.22,43.22 79.22,43.22 -237.66,36.01 -460.93,374.5 -460.93,374.5 h -15.05 l -2.23,39.33 c 29.31,11.52 49.69,36.29 49.69,65.1 0,31.26 -23.98,57.83 -57.4,67.77 l -5.11,88.95 c 27.66,6.12 48.11,27.15 48.11,52.14 0,26.79 -23.48,48.97 -54.23,53.22 l -14.19,245.66 -14.26,-247.03 c -27.08,-6.4 -46.96,-27.22 -46.96,-51.85 0,-22.83 17,-42.28 41.05,-50.2 l -5.18,-89.02 c -37.17,-8.06 -64.68,-36.15 -64.68,-69.64 0,-31.11 23.7,-57.47 56.76,-67.55 l -2.09,-36.88 h -15.06 c -244.86,-360.1 -453.72,-396.11 -453.72,-396.11 l 50.41,-21.61 C 4452.66,4944.2 4805.56,4238.4 4805.56,4238.4 v -489.74 h -496.94 l -136.84,72.02 v 381.71 h 72.02 v 36.01 h -72.02 c 64.82,208.86 -165.65,288.08 -165.65,288.08 l -43.21,187.25 -7.2,-194.45 c -230.47,-93.63 -172.85,-302.49 -172.85,-302.49 h -93.63 v -36.01 h 93.63 l 14.4,-388.91 -216.06,-86.42 H 3192.3 l -7.2,43.21 -165.65,14.4 -64.82,1786.11 h 43.22 v 43.21 h -36.01 v 129.64 c 14.4,122.43 165.64,108.03 165.64,108.03 l 7.2,28.8 h -28.8 l 14.4,108.03 -165.65,28.81 -57.61,1742.89 28.81,7.21 14.4,57.61 -28.81,14.41 7.2,129.63 c 15.13,70.51 79.51,95.21 116.89,103.71 0.22,0.08 0.43,0.08 0.65,0.15 1.66,0.36 3.24,0.72 4.75,1.01 0.15,0.07 0.29,0.07 0.36,0.07 1.45,0.29 2.81,0.57 4.11,0.79 0.72,0.14 1.37,0.22 2.02,0.36 2.01,0.36 3.88,0.65 5.54,0.86 6.12,0.87 9.72,1.08 9.72,1.08 v 108.03 l -144.04,64.82 -28.8,14.41 7.2,396.11 136.84,72.02 14.4,28.81 -151.24,108.03 c 64.82,381.7 -237.67,403.31 -237.67,403.31 l -61.22,342.1 -64.81,-331.3 c 0,0 -309.69,-122.43 -223.27,-316.89 h -36.01 l -14.4,-57.61 c 0,0 -151.24,-57.62 -108.03,-108.03 43.21,-50.42 115.23,-64.82 115.23,-64.82 l 7.2,-432.12 -158.44,-50.42 v -86.42 l -28.81,-21.61 28.81,-21.6 c 0,0 3.6,-1.44 9.58,-4.25 0.79,-0.36 1.58,-0.72 2.44,-1.15 1.01,-0.51 2.16,-1.01 3.32,-1.59 32.91,-16.06 107.09,-57.76 107.09,-108.25 0,-64.81 7.2,-129.63 7.2,-129.63 h -36.01 v -28.81 l 50.42,-7.2 -36.01,-1800.51 -180.05,-21.61 v -108.03 l -28.81,-14.4 28.81,-28.81 c 0,0 144.04,-57.62 136.84,-129.64 l 7.2,-115.23 h -50.42 v -36.01 h 50.42 l 7.2,-1858.12 h -165.65 v -108.03 h 43.21 c 0,0 122.44,-57.62 122.44,-129.64 v -136.84 h -21.61 v -36.01 h 21.61 l -50.41,-2167.81 180.05,-43.21 h 345.69 l 403.32,79.22 79.22,50.41 4069.15,-21.6 v -93.63 l 3759.46,-7.2 28.8,57.62 4148.4,28.8 64.8,-64.81 244.9,-28.81 h 468.1 l 244.9,72.02 -50.4,2095.79 h 21.6 v 43.21 h -28.8 v 144.04 c 0,0 50.4,129.64 172.8,144.04 v 104.43 h -183.7 v 1858.13 h 43.3 v 36.01 h -43.3 v 108.03 c 0,0 28.9,151.24 165.7,165.64" /></g><g
         transform="scale(1.36733)"
         id="g30"><path
           id="path32"
           style="fill:#bf237a;fill-opacity:1;fill-rule:nonzero;stroke:none"
           d="m 16292.7,6095.69 -65.8,1901.52 7.3,0.25 65.8,-1901.52 -7.3,-0.25" /></g><g
         transform="scale(1.35936)"
         id="g34"><path
           id="path36"
           style="fill:#bf237a;fill-opacity:1;fill-rule:nonzero;stroke:none"
           d="m 16292.6,6131.46 -66.2,1912.67 7.4,0.25 66.2,-1912.67 -7.4,-0.25" /></g><g
         transform="scale(1.34993)"
         id="g38"><path
           id="path40"
           style="fill:#bf237a;fill-opacity:1;fill-rule:nonzero;stroke:none"
           d="m 16292.6,6174.04 -61.6,1926.19 7.4,0.24 61.6,-1926.2 -7.4,-0.23" /></g><g
         transform="scale(1.34167)"
         id="g42"><path
           id="path44"
           style="fill:#bf237a;fill-opacity:1;fill-rule:nonzero;stroke:none"
           d="m 16292.5,6208.31 -54.8,1938.28 7.4,0.21 54.9,-1938.27 -7.5,-0.22" /></g><g
         transform="scale(1.33225)"
         id="g46"><path
           id="path48"
           style="fill:#bf237a;fill-opacity:1;fill-rule:nonzero;stroke:none"
           d="m 16292.5,6240.98 -49.7,1937.12 7.5,0.19 49.7,-1937.12 -7.5,-0.19" /></g><g
         transform="scale(1.32195)"
         id="g50"><path
           id="path52"
           style="fill:#bf237a;fill-opacity:1;fill-rule:nonzero;stroke:none"
           d="m 16292.1,6293.2 -7.5,0.03 7.8,1952.84 7.6,-0.03 -7.9,-1952.84" /></g><g
         transform="scale(1.31398)"
         id="g54"><path
           id="path56"
           style="fill:#bf237a;fill-opacity:1;fill-rule:nonzero;stroke:none"
           d="m 16292.1,6335.24 -7.6,0.03 7.9,1949.47 7.6,-0.04 -7.9,-1949.46" /></g><g
         transform="scale(1.31518)"
         id="g58"><path
           id="path60"
           style="fill:#bf237a;fill-opacity:1;fill-rule:nonzero;stroke:none"
           d="m 16254.4,3919.53 -7.6,0.15 45.6,1938.91 7.6,-0.19 -45.6,-1938.87" /></g><g
         transform="scale(1.32623)"
         id="g62"><path
           id="path64"
           style="fill:#bf237a;fill-opacity:1;fill-rule:nonzero;stroke:none"
           d="m 16247.2,3856.73 -7.5,0.15 52.8,1990.63 7.5,-0.19 -52.8,-1990.59" /></g><g
         transform="scale(1.33482)"
         id="g66"><path
           id="path68"
           style="fill:#bf237a;fill-opacity:1;fill-rule:nonzero;stroke:none"
           d="m 16255,3861.88 -7.4,0.15 44.9,1947.85 7.5,-0.18 -45,-1947.82" /></g><g
         transform="scale(1.34218)"
         id="g70"><path
           id="path72"
           style="fill:#bf237a;fill-opacity:1;fill-rule:nonzero;stroke:none"
           d="m 16277.6,3840.7 -7.4,0.15 22.3,1914.76 7.5,-0.08 -22.4,-1914.83" /></g><g
         transform="scale(1.35077)"
         id="g74"><path
           id="path76"
           style="fill:#bf237a;fill-opacity:1;fill-rule:nonzero;stroke:none"
           d="m 16292.6,3816.35 -7.4,1910.01 7.4,0.03 7.4,-1910.04 h -7.4" /></g><g
         transform="scale(1.35752)"
         id="g78"><path
           id="path80"
           style="fill:#bf237a;fill-opacity:1;fill-rule:nonzero;stroke:none"
           d="m 16292.6,3797.38 h -7.3 l 7.3,1900.54 7.4,-0.02 -7.4,-1900.52" /></g><g
         transform="scale(1.3661)"
         id="g82"><path
           id="path84"
           style="fill:#bf237a;fill-opacity:1;fill-rule:nonzero;stroke:none"
           d="m 16292.7,3773.5 -14.7,1888.56 7.4,0.05 14.6,-1888.61 h -7.3" /></g><g
         transform="scale(1.3115)"
         id="g86"><path
           id="path88"
           style="fill:#bf237a;fill-opacity:1;fill-rule:nonzero;stroke:none"
           d="m 16223.8,1681.13 -7.7,0.3 76.3,1784.21 7.6,-0.3 -76.2,-1784.21" /></g><g
         transform="scale(1.32071)"
         id="g90"><path
           id="path92"
           style="fill:#bf237a;fill-opacity:1;fill-rule:nonzero;stroke:none"
           d="m 16224.3,1646.7 -7.6,0.3 75.7,1817.21 7.6,-0.3 -75.7,-1817.21" /></g><g
         transform="scale(1.32991)"
         id="g94"><path
           id="path96"
           style="fill:#bf237a;fill-opacity:1;fill-rule:nonzero;stroke:none"
           d="m 16239.8,1635.3 -7.5,0.3 60.2,1804.64 7.5,-0.3 -60.2,-1804.64" /></g><g
         transform="scale(1.33911)"
         id="g98"><path
           id="path100"
           style="fill:#bf237a;fill-opacity:1;fill-rule:nonzero;stroke:none"
           d="m 16240.3,1609.13 -7.5,0.3 59.7,1784.76 7.5,-0.29 -59.7,-1784.77" /></g><g
         transform="scale(1.34831)"
         id="g102"><path
           id="path104"
           style="fill:#bf237a;fill-opacity:1;fill-rule:nonzero;stroke:none"
           d="m 16255.5,1613.05 -7.4,0.15 44.5,1757.75 7.4,-0.14 -44.5,-1757.76" /></g><g
         transform="scale(1.35752)"
         id="g106"><path
           id="path108"
           style="fill:#bf237a;fill-opacity:1;fill-rule:nonzero;stroke:none"
           d="m 16263.2,1587.39 -7.4,0.14 36.8,1760.57 7.4,-0.14 -36.8,-1760.57" /></g><g
         transform="scale(1.36672)"
         id="g110"><path
           id="path112"
           style="fill:#bf237a;fill-opacity:1;fill-rule:nonzero;stroke:none"
           d="m 16263.4,1554.75 -7.3,0.14 36.6,1770.67 7.3,-0.15 -36.6,-1770.66" /></g><g
         transform="scale(1.37804)"
         id="g114"><path
           id="path116"
           style="fill:#bf237a;fill-opacity:1;fill-rule:nonzero;stroke:none"
           d="m 16143.8,1538.27 -4,0.14 -695.8,21.99 -92.6,54.06 25.6,43.83 81.5,-47.53 679,-21.41 148.6,42.46 13.9,-48.91 -156.2,-44.63" /></g><path
         id="path118"
         style="fill:#bf237a;fill-opacity:1;fill-rule:nonzero;stroke:none"
         d="m 3247.63,2129.9 -265.42,81.6 20.58,67 254.58,-78.4 431.79,9.8 587.49,99.6 11.7,-69 -592.51,-100.4 -448.21,-10.2" /><path
         id="path120"
         style="fill:#bf237a;fill-opacity:1;fill-rule:nonzero;stroke:none"
         d="m 4147.5,2274.8 -90,2330 10,0.4 90,-2330 -10,-0.4" /><path
         id="path122"
         style="fill:#bf237a;fill-opacity:1;fill-rule:nonzero;stroke:none"
         d="m 3997.5,2244.9 -50,2330 10,0.2 50,-2330 -10,-0.2" /><path
         id="path124"
         style="fill:#bf237a;fill-opacity:1;fill-rule:nonzero;stroke:none"
         d="m 3847.5,2244.9 -70,2360 10,0.2 70,-2360 -10,-0.2" /><path
         id="path126"
         style="fill:#bf237a;fill-opacity:1;fill-rule:nonzero;stroke:none"
         d="m 3687.5,2164.9 -60,2440 10,0.2 60,-2440 -10,-0.2" /><path
         id="path128"
         style="fill:#bf237a;fill-opacity:1;fill-rule:nonzero;stroke:none"
         d="m 3527.5,2195 -20,2410 h 10 l 20,-2410 h -10" /><path
         id="path130"
         style="fill:#bf237a;fill-opacity:1;fill-rule:nonzero;stroke:none"
         d="m 3367.5,2195 -20,2410 h 10 l 20,-2410 h -10" /><path
         id="path132"
         style="fill:#bf237a;fill-opacity:1;fill-rule:nonzero;stroke:none"
         d="m 3207.5,2195 h -10 v 2410 h 10 V 2195" /><path
         id="path134"
         style="fill:#bf237a;fill-opacity:1;fill-rule:nonzero;stroke:none"
         d="m 3057.5,2244.9 -10,0.2 50,2360 10,-0.2 -50,-2360" /><path
         id="path136"
         style="fill:#bf237a;fill-opacity:1;fill-rule:nonzero;stroke:none"
         d="m 4047.5,5104.9 -60,2639.99 10,0.22 60,-2640.01 -10,-0.2" /><path
         id="path138"
         style="fill:#bf237a;fill-opacity:1;fill-rule:nonzero;stroke:none"
         d="m 3887.5,5114.9 -30,2630.04 10,0.12 30,-2629.96 -10,-0.2" /><path
         id="path140"
         style="fill:#bf237a;fill-opacity:1;fill-rule:nonzero;stroke:none"
         d="m 3767.5,5104.9 -50,2640.01 10,0.18 50,-2639.99 -10,-0.2" /><path
         id="path142"
         style="fill:#bf237a;fill-opacity:1;fill-rule:nonzero;stroke:none"
         d="m 3617.5,5154.9 -50,2590 10,0.2 50,-2590 -10,-0.2" /><path
         id="path144"
         style="fill:#bf237a;fill-opacity:1;fill-rule:nonzero;stroke:none"
         d="m 3487.5,5115 h -10 v 2660 h 10 V 5115" /><path
         id="path146"
         style="fill:#bf237a;fill-opacity:1;fill-rule:nonzero;stroke:none"
         d="m 3357.5,5105 h -10 v 2640 h 10 V 5105" /><path
         id="path148"
         style="fill:#bf237a;fill-opacity:1;fill-rule:nonzero;stroke:none"
         d="m 3217.5,5155 -20,2619.96 10,0.08 20,-2620.04 h -10" /><path
         id="path150"
         style="fill:#bf237a;fill-opacity:1;fill-rule:nonzero;stroke:none"
         d="m 3957.5,8244.92 -40,2619.98 10,0.2 40,-2620.02 -10,-0.16" /><path
         id="path152"
         style="fill:#bf237a;fill-opacity:1;fill-rule:nonzero;stroke:none"
         d="m 3837.5,8294.92 -40,2619.98 10,0.2 40,-2620.02 -10,-0.16" /><path
         id="path154"
         style="fill:#bf237a;fill-opacity:1;fill-rule:nonzero;stroke:none"
         d="m 3717.5,8264.93 -40,2669.97 10,0.2 40,-2670.03 -10,-0.14" /><path
         id="path156"
         style="fill:#bf237a;fill-opacity:1;fill-rule:nonzero;stroke:none"
         d="m 3567.5,8264.98 -10,0.04 10,2669.98 h 10 l -10,-2670.02" /><path
         id="path158"
         style="fill:#bf237a;fill-opacity:1;fill-rule:nonzero;stroke:none"
         d="m 3417.5,8244.93 -10,0.14 40,2690.03 10,-0.2 -40,-2689.97" /><path
         id="path160"
         style="fill:#bf237a;fill-opacity:1;fill-rule:nonzero;stroke:none"
         d="m 3257.5,8264.89 -10,0.22 60,2649.99 10,-0.2 -60,-2650.01" /><path
         id="path162"
         style="fill:#1b2646;fill-opacity:1;fill-rule:nonzero;stroke:none"
         d="m 11947.5,2150 h 1490 v 1780 l -670,270 h -140 l -680,-280 V 2150" /><path
         id="path164"
         style="fill:#1b2646;fill-opacity:1;fill-rule:nonzero;stroke:none"
         d="m 4907.5,2270 -20,1090 80,80 290,-190 -20,-980 h -330" /><path
         id="path166"
         style="fill:#1b2646;fill-opacity:1;fill-rule:nonzero;stroke:none"
         d="m 7299.66,2220 -22.16,1090 88.65,80 321.35,-190 -22.16,-980 h -365.68" /><path
         id="path168"
         style="fill:#1b2646;fill-opacity:1;fill-rule:nonzero;stroke:none"
         d="m 9531.55,2180 -34.05,1090 136.22,80 493.78,-190 -3.3,-980 h -592.65" /><path
         id="path170"
         style="fill:#1b2646;fill-opacity:1;fill-rule:nonzero;stroke:none"
         d="m 5987.5,2250 20,1090 -80,80 -290,-190 20,-980 h 330" /><path
         id="path172"
         style="fill:#1b2646;fill-opacity:1;fill-rule:nonzero;stroke:none"
         d="m 8357.5,2210 20,1090 -80,80 -290,-190 20,-980 h 330" /><path
         id="path174"
         style="fill:#1b2646;fill-opacity:1;fill-rule:nonzero;stroke:none"
         d="m 15287.5,2210 v 810 l 50,120 340,250 h 50 l 200,-130 V 2200 l -640,10" /><g
         transform="scale(1.11764)"
         id="g176"><path
           id="path178"
           style="fill:#1b2646;fill-opacity:1;fill-rule:nonzero;stroke:none"
           d="m 15843.7,1977.38 v 724.75 l 35.6,107.37 242.5,223.68 h 35.6 l 142.6,-116.31 v -948.43 l -456.3,8.94" /></g><g
         transform="scale(1.26365)"
         id="g180"><path
           id="path182"
           style="fill:#1b2646;fill-opacity:1;fill-rule:nonzero;stroke:none"
           d="m 15896.4,1748.9 v 641 l 31.5,94.96 214.5,197.84 h 31.5 l 126.1,-102.87 v -838.84 l -403.6,7.91" /></g><g
         transform="scale(1.0661)"
         id="g184"><path
           id="path186"
           style="fill:#1b2646;fill-opacity:1;fill-rule:nonzero;stroke:none"
           d="m 16300,2072.97 v 759.77 l -0.5,140.7 -222.5,206.36 h -94.1 l -48.7,-121.94 v -994.27 l 365.8,9.38" /></g><g
         transform="scale(1.21212)"
         id="g188"><path
           id="path190"
           style="fill:#1b2646;fill-opacity:1;fill-rule:nonzero;stroke:none"
           d="m 16300,1823.26 v 668.25 l -0.4,123.75 -195.7,181.5 h -82.8 l -42.9,-107.25 v -874.5 l 321.8,8.25" /></g><g
         transform="scale(1.17807)"
         id="g192"><path
           id="path194"
           style="fill:#bf237a;fill-opacity:1;fill-rule:nonzero;stroke:none"
           d="m 15841.6,4893.61 h 51 v -131.57 h -2275 v 157.03 h 42.5 v 59.42 c -356.5,950.71 543.2,1307.23 543.2,1307.23 l -59.4,50.93 c 135.8,-93.37 568.8,492.33 568.8,492.33 h 84.8 c 433,-509.31 585.7,-492.33 585.7,-492.33 l -59.4,-42.44 C 16300,5852.81 15841.6,4970 15841.6,4970 v -76.39" /></g><path
         id="path196"
         style="fill:#bf237a;fill-opacity:1;fill-rule:nonzero;stroke:none"
         d="m 10638.8,7441 c -49.6,22.7 -109.9,33.2 -121.3,-41 v 88.4 c 31.7,14.5 79.7,19.2 121.3,-47.4" /><path
         id="path198"
         style="fill:#bf237a;fill-opacity:1;fill-rule:nonzero;stroke:none"
         d="m 14554.2,7409.6 -46.7,-49.6 c 0,0 -50,180 -260,30 0,0 -110,180 -230,-20 0,0 -140,190 -250,10 0,0 -150,190 -260,-10 0,0 -120,200 -270,10 0,0 -140,170 -260,-20 0,0 -120,240 -260,0 0,0 -150,190 -250,0 0,0 -120,210 -260,0 0,0 -130,220 -260,0 0,0 -100,210 -260,0 0,0 -120,170 -260,0 0,0 -120,210 -250,0 0,0 -100,200 -280,10 0,0 -80,140 -190,30 0,0 -27.9,21.3 -62.4,38 14.5,16.2 88.9,90.7 187.4,37 0,0 190,800 1030,1210 l -80,40 c 0,0 310,50 770,790 h 230 c 0,0 560,-850 790,-780 l -140,-60 c 0,0 1181,-659.4 1121.7,-1265.4" /><path
         id="path200"
         style="fill:#bf237a;fill-opacity:1;fill-rule:nonzero;stroke:none"
         d="m 9222.5,5865 h 50 v -70 h -40 v -155 h -2560 v 245 c 0,0 -490,980 660,1560 l -70,30 c 0,0 290,50 630,550 h 140 c 0,0 310,-470 640,-520 0,0 -70,-60 -110,-60 0,0 1170,-560 660,-1580" /><path
         id="path202"
         style="fill:#bf237a;fill-opacity:1;fill-rule:nonzero;stroke:none"
         d="m 14977.5,1790 h -670 v 360 h 670 v -360" /><path
         id="path204"
         style="fill:#bf237a;fill-opacity:1;fill-rule:nonzero;stroke:none"
         d="m 11167.5,1790 h -670 v 360 h 670 v -360" /><g
         transform="scale(1.29371)"
         id="g206"><path
           id="path208"
           style="fill:#bf237a;fill-opacity:1;fill-rule:nonzero;stroke:none"
           d="m 11785.9,1715.99 v -255.08 l 4514.1,23.19 -61.8,309.19 -4452.3,-77.3" /></g><path
         id="path210"
         style="fill:#bf237a;fill-opacity:1;fill-rule:nonzero;stroke:none"
         d="m 4367.5,1960 560,310 5200,-90 30,-270 h 30 v -20 l -5820,70" /><g
         transform="scale(1.38359)"
         id="g212"><path
           id="path214"
           style="fill:#bf237a;fill-opacity:1;fill-rule:nonzero;stroke:none"
           d="m 15971.1,8413.48 h -144.5 v 186.55 l 42.1,28.91 c 21.1,14.38 49,8.96 64,-12.58 l 38.4,-55.15 z m -195.1,-7.8 h -144.6 v 186.61 l 42.2,28.84 c 21.1,14.46 48.9,8.96 64,-12.5 l 38.4,-55.22 z m 495.1,-213.22 v 137.33 h -166.2 l 14.4,433.65 144.6,79.5 -7.3,28.91 -122.8,72.28 h -43.4 v 65.05 c 0,0 50.6,202.37 -166.2,260.19 0,0 -102.4,108.85 -102.4,314.47 0,6.07 0,12.15 0.2,18.36 v 0.65 c 0.2,5.86 0.5,11.71 0.8,17.71 v 0.58 c -0.1,-1.01 -0.2,-2.31 -0.3,-3.9 v -0.44 c -0.2,-2.17 -0.5,-4.84 -0.7,-7.95 -0.6,-5.42 -1.3,-12.21 -2.1,-20.16 -0.4,-3.04 -0.8,-6.29 -1.1,-9.69 -0.3,-2.31 -0.6,-4.62 -0.9,-7.08 -0.4,-2.97 -0.7,-6.07 -1.2,-9.25 0,-0.73 -0.1,-1.52 -0.2,-2.31 -0.3,-2.25 -0.6,-4.49 -0.9,-6.8 -0.1,-0.51 -0.2,-1.08 -0.2,-1.59 -0.6,-4.12 -1.2,-8.31 -1.8,-12.57 -2.5,-18 -5.7,-37.95 -9.6,-58.69 -1.3,-7.38 -2.8,-14.89 -4.4,-22.41 -0.5,-2.89 -1.1,-5.78 -1.8,-8.67 -1.1,-5.78 -2.4,-11.64 -3.8,-17.42 -0.7,-2.89 -1.4,-5.86 -2.1,-8.75 -1,-4.4 -2.1,-8.74 -3.3,-13.08 -0.7,-2.96 -1.5,-5.92 -2.3,-8.81 -5.8,-21.98 -12.6,-43.44 -20.3,-63.32 -1.9,-4.91 -3.9,-9.68 -5.9,-14.38 -1,-2.46 -2.1,-4.92 -3.3,-7.37 -1.1,-2.46 -2.2,-4.85 -3.4,-7.23 -3.1,-6.51 -6.3,-12.65 -9.8,-18.5 -0.9,-1.59 -1.8,-3.11 -2.7,-4.56 -4.8,-7.87 -9.8,-15.03 -15.2,-21.32 -1,-1.23 -2.1,-2.53 -3.2,-3.69 -3,-3.39 -6.2,-6.57 -9.5,-9.39 -1.3,-1.16 -2.6,-2.31 -4,-3.32 -4.6,-3.62 -9.3,-6.58 -14.2,-8.97 -1.5,-0.72 -3,-1.37 -4.5,-2.02 -3.7,-1.45 -7.5,-2.6 -11.4,-3.25 -1.5,-0.36 -3.1,-0.58 -4.7,-0.65 -3.2,-0.44 -6.6,-0.58 -10,-0.37 0,0 -231.3,-36.13 -159,-296.33 v -50.59 l -166.3,-101.19 v -21.68 l 122.9,-72.27 v -390.29 l -159,-50.6 v -108.41 l -14.5,-28.91 c 0,0 1.3,-0.58 3.8,-1.66 0.8,-0.37 1.7,-0.73 2.8,-1.23 1.5,-0.65 3.1,-1.37 4.9,-2.24 l 180.1,81.02 339.7,50.59 h 361.3 l 103,-82.97 c 0.6,0 1.2,-0.07 1.8,-0.15 h 14.5 v 36.14 h -28.9" /></g><g
         transform="scale(1.23127)"
         id="g216"><path
           id="path218"
           style="fill:#bf237a;fill-opacity:1;fill-rule:nonzero;stroke:none"
           d="m 16281.1,4832.41 h -401.2 v 4.06 h 32.5 c -16.2,219.29 211.2,243.65 211.2,243.65 176.4,-81.46 165.8,-208.16 157.5,-247.71" /></g><path
         id="path220"
         style="fill:#bf237a;fill-opacity:1;fill-rule:nonzero;stroke:none"
         d="m 15237.5,8230 h -70 v 220 l 11.6,92.2 c 10.1,36.7 32.3,36.2 42.2,-0.9 l 16.2,-81.3 z m -120,0 h -110 v 220 l 18.2,92.2 c 15.8,36.7 50.9,36.2 66.3,-0.9 l 25.5,-81.3 z m -160,0 h -70 v 220 l 11.6,92.2 c 10.1,36.7 32.3,36.2 42.2,-0.9 l 16.2,-81.3 z m 485,-75 c 0,0 -30,50 -160,40 v 410 h 100 v 60 h -90 c 0,0 20,310 -250,310 -270,0 -200,-340 -200,-340 h -110 v -60 h 100 l 10,-400 c -100,30 -130,-50 -130,-50 230,-90 200,-420 200,-420 h -30 v -55 h 340 v 5 h 50 v 60 h -50 c 0,0 0,310 220,440" /><path
         id="path222"
         style="fill:#bf237a;fill-opacity:1;fill-rule:nonzero;stroke:none"
         d="m 10517.5,8210 h -70 v 220 l 11.6,92.2 c 10.1,36.7 32.3,36.2 42.2,-0.9 l 16.2,-81.3 z m -120,0 h -110 v 220 l 18.2,92.2 c 15.8,36.7 50.9,36.2 66.3,-0.9 l 25.5,-81.3 z m -160,0 h -70 v 220 l 11.6,92.2 c 10.1,36.7 32.3,36.2 42.2,-0.9 l 16.2,-81.3 z m 325,5 v 350 h 100 v 70 h -80 c 70,290 -210,400 -210,400 l -40,240 -10,-250 c -240,-100 -210,-390 -210,-390 h -100 v -80 h 120 v -340 c -150,30 -160,-70 -160,-70 260,-90 180,-370 180,-370 v -95 h 380 v 115 c 20,340 210,350 210,350 30,100 -180,70 -180,70" /><path
         id="path224"
         style="fill:#bf237a;fill-opacity:1;fill-rule:nonzero;stroke:none"
         d="m 3817.5,11630 h -200 v 190 l 53.2,71 c 20.8,27.6 59.3,34.7 88.5,16.1 l 58.3,-37.1 z m -270,10 h -200 v 190 l 53.2,71 c 20.8,27.6 59.3,34.7 88.5,16.1 l 58.3,-37.1 z m 505,-215 -40,20 10,550 190,100 20,40 -210,150 c 90,530 -330,560 -330,560 l -85,475 -90,-460 c 0,0 -430,-170 -310,-440 h -50 l -20,-80 c 0,0 -210,-80 -150,-150 60,-70 160,-90 160,-90 l 10,-600 -220,-70 v -120 l -40,-30 40,-30 c 0,0 5,-2 13.3,-5.9 1.1,-0.5 2.2,-1 3.4,-1.6 1.4,-0.7 3,-1.4 4.6,-2.2 l 188.7,129.7 h 450 l 430,-80 187.3,-111 c 0.3,0.1 0.6,0.1 0.9,0.2 2.3,0.5 4.5,1 6.6,1.4 0.2,0.1 0.4,0.1 0.5,0.1 2,0.4 3.9,0.8 5.7,1.1 1,0.2 1.9,0.3 2.8,0.5 2.8,0.5 5.4,0.9 7.7,1.2 8.5,1.2 13.5,1.5 13.5,1.5 v 150 l -200,90" /><path
         id="path226"
         style="fill:#bf237a;fill-opacity:1;fill-rule:nonzero;stroke:none"
         d="m 5805.2,5940 h -561.5 c 1.2,96 39.2,249.8 248.8,335 l 10,270 60,-260 c 0,0 279.2,-96 242.7,-345" /><path
         id="path228"
         style="fill:#6d185d;fill-opacity:1;fill-rule:nonzero;stroke:none"
         d="m 15247.5,4500 h -300 v 60 h 300 v -60" /><path
         id="path230"
         style="fill:#6d185d;fill-opacity:1;fill-rule:nonzero;stroke:none"
         d="m 10497.5,4540 h -300 v 60 h 300 v -60" /><path
         id="path232"
         style="fill:#6d185d;fill-opacity:1;fill-rule:nonzero;stroke:none"
         d="m 14637.5,6930 h -4050 V 2220 h 310 v 4420 h 3640 V 2220 h 310 v 4710 h -210" /><path
         id="path234"
         style="fill:#6d185d;fill-opacity:1;fill-rule:nonzero;stroke:none"
         d="m 10977.5,2180 h 130 l 10,2290 c 0,0 170,-40 40,170 -130,210 100,180 100,180 0,0 -190,190 60,260 0,0 -40,300 190,250 0,0 -10,230 200,210 0,0 50,230 270,130 0,0 20,230 270,150 0,0 30,210 240,110 0,0 200,100 200,190 0,0 120,-120 270,-150 150,-30 220,0 250,-180 0,0 180,40 260,-120 0,0 230,40 270,-130 0,0 200,10 240,-190 0,0 210,-40 150,-250 0,0 170,-80 90,-270 0,0 130,-110 20,-280 -110,-170 100,-90 100,-90 V 2180 h 120 v 4350 h -3480 V 2180" /><path
         id="path236"
         style="fill:#6d185d;fill-opacity:1;fill-rule:nonzero;stroke:none"
         d="m 15287.5,7020 h -5140 v 80 l 5140,-30 v -50" /><g
         transform="scale(1.30537)"
         id="g238"><path
           id="path240"
           style="fill:#6d185d;fill-opacity:1;fill-rule:nonzero;stroke:none"
           d="M 11665.3,3508.59 H 16300 v 45.96 h -4634.7 v -45.96" /></g><g
         transform="scale(1.37592)"
         id="g242"><path
           id="path244"
           style="fill:#6d185d;fill-opacity:1;fill-rule:nonzero;stroke:none"
           d="m 15464.2,3285.07 h 835.8 v 43.61 h -835.8 v -43.61" /></g><path
         id="path246"
         style="fill:#6d185d;fill-opacity:1;fill-rule:nonzero;stroke:none"
         d="m 16290.8,3774.9 h -929.6 v 351.7 h 929.6 v -351.7" /><g
         transform="scale(1.01098)"
         id="g248"><path
           id="path250"
           style="fill:#6d185d;fill-opacity:1;fill-rule:nonzero;stroke:none"
           d="m 15116.5,3626.58 h 1114.3 v 580.82 h -1114.3 z m 1183.5,-69.24 h -1252.7 v 719.3 H 16300 v -719.3" /></g><g
         transform="scale(1.07218)"
         id="g252"><path
           id="path254"
           style="fill:#6d185d;fill-opacity:1;fill-rule:nonzero;stroke:none"
           d="m 16300,3520.76 h -866.9 v 328.02 h 866.9 v -328.02" /></g><g
         transform="scale(1.08374)"
         id="g256"><path
           id="path258"
           style="fill:#6d185d;fill-opacity:1;fill-rule:nonzero;stroke:none"
           d="m 15195.9,3383.11 h 1039.5 v 541.83 h -1039.5 z m 1104.1,-64.59 h -1168.6 v 671.01 H 16300 v -671.01" /></g><g
         transform="scale(1.14494)"
         id="g260"><path
           id="path262"
           style="fill:#6d185d;fill-opacity:1;fill-rule:nonzero;stroke:none"
           d="m 16300,3297.03 h -811.9 v 307.18 h 811.9 v -307.18" /></g><g
         transform="scale(1.15649)"
         id="g264"><path
           id="path266"
           style="fill:#6d185d;fill-opacity:1;fill-rule:nonzero;stroke:none"
           d="m 15265.3,3170.28 h 974.2 v 507.74 h -974.2 z m 1034.7,-60.53 h -1095.2 v 628.8 H 16300 v -628.8" /></g><g
         transform="scale(1.21769)"
         id="g268"><path
           id="path270"
           style="fill:#6d185d;fill-opacity:1;fill-rule:nonzero;stroke:none"
           d="m 16300,3100.04 h -763.4 v 288.83 h 763.4 v -288.83" /></g><g
         transform="scale(1.22924)"
         id="g272"><path
           id="path274"
           style="fill:#6d185d;fill-opacity:1;fill-rule:nonzero;stroke:none"
           d="m 15326.6,2982.66 h 916.5 v 477.69 h -916.5 z m 973.4,-56.95 H 15269.7 V 3517.3 H 16300 v -591.59" /></g><g
         transform="scale(1.29044)"
         id="g276"><path
           id="path278"
           style="fill:#6d185d;fill-opacity:1;fill-rule:nonzero;stroke:none"
           d="m 16300,2925.28 h -720.3 v 272.54 h 720.3 v -272.54" /></g><g
         transform="scale(1.30199)"
         id="g280"><path
           id="path282"
           style="fill:#6d185d;fill-opacity:1;fill-rule:nonzero;stroke:none"
           d="m 15381,2815.99 h 865.2 v 451 H 15381 Z m 919,-53.76 h -972.7 v 558.52 h 972.7 v -558.52" /></g><g
         transform="scale(1.29586)"
         id="g284"><path
           id="path286"
           style="fill:#6d185d;fill-opacity:1;fill-rule:nonzero;stroke:none"
           d="m 16098.4,1601.25 27.5,-3.16 v 608.94 h 171 v -617.35 h 3.1 v -131.19 h -134.4 v 3.86 l -85.5,46.3 v 92.6 h 18.3" /></g><g
         transform="scale(1.23206)"
         id="g288"><path
           id="path290"
           style="fill:#6d185d;fill-opacity:1;fill-rule:nonzero;stroke:none"
           d="m 15999.7,1684.18 36.5,-3.33 v 640.47 h 227.3 V 1672 h 36.5 v -137.98 h -211 v 4.06 l -113.7,48.7 v 97.4 h 24.4" /></g><g
         transform="scale(1.15905)"
         id="g292"><path
           id="path294"
           style="fill:#6d185d;fill-opacity:1;fill-rule:nonzero;stroke:none"
           d="m 15980.8,1790.26 38.8,-3.54 v 680.82 h 241.6 v -690.22 h 38.8 v -146.67 h -224.3 v 4.31 l -120.8,51.77 v 103.53 h 25.9" /></g><g
         transform="scale(1.08788)"
         id="g296"><path
           id="path298"
           style="fill:#6d185d;fill-opacity:1;fill-rule:nonzero;stroke:none"
           d="m 15959.9,1907.37 41.4,-3.77 v 725.36 h 257.3 v -735.37 h 41.4 v -156.27 h -239 v 4.59 l -128.7,55.16 v 110.3 h 27.6" /></g><g
         transform="scale(1.01304)"
         id="g300"><path
           id="path302"
           style="fill:#6d185d;fill-opacity:1;fill-rule:nonzero;stroke:none"
           d="m 15934.8,2048.3 44.4,-4.05 v 778.94 h 276.4 v -789.7 h 44.4 v -167.81 h -256.7 v 4.93 l -138.2,59.23 v 118.46 h 29.7" /></g><g
         transform="scale(1.29126)"
         id="g304"><path
           id="path306"
           style="fill:#6d185d;fill-opacity:1;fill-rule:nonzero;stroke:none"
           d="m 15959.2,2671.81 v -77.44 c 0,0 62,0 54.3,-46.47 0,0 77.4,23.24 77.4,-38.72 0,0 85.2,23.23 92.9,-69.7 0,0 77.5,15.49 69.7,-69.7 0,0 31,-23.23 23.3,-46.46 h 23.2 v 348.49 h -340.8" /></g><g
         transform="scale(1.25936)"
         id="g308"><path
           id="path310"
           style="fill:#6d185d;fill-opacity:1;fill-rule:nonzero;stroke:none"
           d="m 16300,2739.5 v -79.41 c 0,0 -63.5,0 -55.6,-47.64 0,0 -79.4,23.82 -79.4,-39.71 0,0 -87.3,23.83 -95.3,-71.46 0,0 -79.4,15.88 -71.4,-71.47 0,0 -31.8,-23.82 -23.9,-47.64 h -23.8 v 357.33 h 349.4" /></g><g
         transform="scale(1.21887)"
         id="g312"><path
           id="path314"
           style="fill:#6d185d;fill-opacity:1;fill-rule:nonzero;stroke:none"
           d="m 15939,2830.5 v -82.04 c 0,0 65.6,0 57.4,-49.23 0,0 82.1,24.62 82.1,-41.02 0,0 90.2,24.61 98.4,-73.84 0,0 82.1,16.41 73.9,-73.84 0,0 32.8,-24.61 24.6,-49.22 h 24.6 v 369.19 h -361" /></g><g
         transform="scale(1.18696)"
         id="g316"><path
           id="path318"
           style="fill:#6d185d;fill-opacity:1;fill-rule:nonzero;stroke:none"
           d="m 16300,2906.58 v -84.25 c 0,0 -67.4,0 -59,-50.55 0,0 -84.2,25.27 -84.2,-42.13 0,0 -92.7,25.28 -101.1,-75.82 0,0 -84.3,16.85 -75.8,-75.82 0,0 -33.7,-25.28 -25.3,-50.55 h -25.3 v 379.12 h 370.7" /></g><g
         transform="scale(1.14525)"
         id="g320"><path
           id="path322"
           style="fill:#6d185d;fill-opacity:1;fill-rule:nonzero;stroke:none"
           d="m 15915.8,3012.45 v -87.31 c 0,0 69.9,0 61.1,-52.39 0,0 87.3,26.19 87.3,-43.66 0,0 96.1,26.19 104.8,-78.59 0,0 87.3,17.47 78.6,-78.58 0,0 34.9,-26.2 26.2,-52.39 h 26.2 v 392.92 h -384.2" /></g><g
         transform="scale(1.11334)"
         id="g324"><path
           id="path326"
           style="fill:#6d185d;fill-opacity:1;fill-rule:nonzero;stroke:none"
           d="m 16300,3098.77 v -89.82 c 0,0 -71.9,0 -62.9,-53.89 0,0 -89.8,26.95 -89.8,-44.91 0,0 -98.8,26.95 -107.8,-80.83 0,0 -89.8,17.96 -80.8,-80.84 0,0 -35.9,-26.95 -27,-53.89 h -26.9 v 404.18 h 395.2" /></g><g
         transform="scale(1.07101)"
         id="g328"><path
           id="path330"
           style="fill:#6d185d;fill-opacity:1;fill-rule:nonzero;stroke:none"
           d="m 15889.2,3221.25 v -93.37 c 0,0 74.7,0 65.3,-56.02 0,0 93.4,28.01 93.4,-46.68 0,0 102.7,28.01 112,-84.04 0,0 93.4,18.68 84.1,-84.03 0,0 37.3,-28.01 28,-56.02 h 28 v 420.16 h -410.8" /></g><g
         transform="scale(1.03911)"
         id="g332"><path
           id="path334"
           style="fill:#6d185d;fill-opacity:1;fill-rule:nonzero;stroke:none"
           d="m 16300,3320.15 v -96.24 c 0,0 -77,0 -67.4,-57.74 0,0 -96.2,28.87 -96.2,-48.12 0,0 -105.9,28.87 -115.5,-86.61 0,0 -96.2,19.25 -86.6,-86.61 0,0 -38.5,-28.87 -28.9,-57.75 h -28.8 v 433.07 h 423.4" /></g><path
         id="path336"
         style="fill:#6d185d;fill-opacity:1;fill-rule:nonzero;stroke:none"
         d="m 15807.5,3450 v -100 c 0,0 80,0 70,-60 0,0 100,30 100,-50 0,0 110,30 120,-90 0,0 100,20 90,-90 0,0 40,-30 30,-60 h 30 v 450 h -440" /><path
         id="path338"
         style="fill:#6d185d;fill-opacity:1;fill-rule:nonzero;stroke:none"
         d="m 15727.5,3450 v -100 c 0,0 -80,0 -70,-60 0,0 -100,30 -100,-50 0,0 -110,30 -120,-90 0,0 -100,20 -90,-90 0,0 -40,-30 -30,-60 h -30 v 450 h 440" /><path
         id="path340"
         style="fill:#6d185d;fill-opacity:1;fill-rule:nonzero;stroke:none"
         d="m 9667.5,3470 v -100 c 0,0 80,0 70,-60 0,0 100,30 100,-50 0,0 110,30 120,-90 0,0 100,20 90,-90 0,0 40,-30 30,-60 h 30 v 450 h -440" /><path
         id="path342"
         style="fill:#6d185d;fill-opacity:1;fill-rule:nonzero;stroke:none"
         d="m 9587.5,3470 v -100 c 0,0 -80,0 -70,-60 0,0 -100,30 -100,-50 0,0 -110,30 -120,-90 0,0 -100,20 -90,-90 0,0 -40,-30 -30,-60 h -30 v 450 h 440" /><path
         id="path344"
         style="fill:#6d185d;fill-opacity:1;fill-rule:nonzero;stroke:none"
         d="m 8457.5,3470 v -100 c 0,0 80,0 70,-60 0,0 100,30 100,-50 0,0 110,30 120,-90 0,0 100,20 90,-90 0,0 40,-30 30,-60 h 30 v 450 h -440" /><path
         id="path346"
         style="fill:#6d185d;fill-opacity:1;fill-rule:nonzero;stroke:none"
         d="m 8377.5,3470 v -100 c 0,0 -80,0 -70,-60 0,0 -100,30 -100,-50 0,0 -110,30 -120,-90 0,0 -100,20 -90,-90 0,0 -40,-30 -30,-60 h -30 v 450 h 440" /><path
         id="path348"
         style="fill:#6d185d;fill-opacity:1;fill-rule:nonzero;stroke:none"
         d="m 7267.5,3480 v -100 c 0,0 80,0 70,-60 0,0 100,30 100,-50 0,0 110,30 120,-90 0,0 100,20 90,-90 0,0 40,-30 30,-60 h 30 v 450 h -440" /><path
         id="path350"
         style="fill:#6d185d;fill-opacity:1;fill-rule:nonzero;stroke:none"
         d="m 7187.5,3480 v -100 c 0,0 -80,0 -70,-60 0,0 -100,30 -100,-50 0,0 -110,30 -120,-90 0,0 -100,20 -90,-90 0,0 -40,-30 -30,-60 h -30 v 450 h 440" /><path
         id="path352"
         style="fill:#6d185d;fill-opacity:1;fill-rule:nonzero;stroke:none"
         d="m 6077.5,3480 v -100 c 0,0 80,0 70,-60 0,0 100,30 100,-50 0,0 110,30 120,-90 0,0 100,20 90,-90 0,0 40,-30 30,-60 h 30 v 450 h -440" /><path
         id="path354"
         style="fill:#6d185d;fill-opacity:1;fill-rule:nonzero;stroke:none"
         d="m 5997.5,3480 v -100 c 0,0 -80,0 -70,-60 0,0 -100,30 -100,-50 0,0 -110,30 -120,-90 0,0 -100,20 -90,-90 0,0 -40,-30 -30,-60 h -30 v 450 h 440" /><path
         id="path356"
         style="fill:#6d185d;fill-opacity:1;fill-rule:nonzero;stroke:none"
         d="m 4887.5,3480 v -100 c 0,0 80,0 70,-60 0,0 100,30 100,-50 0,0 110,30 120,-90 0,0 100,20 90,-90 0,0 40,-30 30,-60 h 30 v 450 h -440" /><path
         id="path358"
         style="fill:#6d185d;fill-opacity:1;fill-rule:nonzero;stroke:none"
         d="m 4807.5,3480 v -100 c 0,0 -80,0 -70,-60 0,0 -100,30 -100,-50 0,0 -110,30 -120,-90 0,0 -100,20 -90,-90 0,0 -40,-30 -30,-60 h -30 v 450 h 440" /><path
         id="path360"
         style="fill:#6d185d;fill-opacity:1;fill-rule:nonzero;stroke:none"
         d="m 10127.5,3760 h -940 v 380 h 940 v -380" /><path
         id="path362"
         style="fill:#6d185d;fill-opacity:1;fill-rule:nonzero;stroke:none"
         d="m 8917.5,3760 h -940 v 380 h 940 v -380" /><path
         id="path364"
         style="fill:#6d185d;fill-opacity:1;fill-rule:nonzero;stroke:none"
         d="m 7707.5,3760 h -940 v 380 h 940 v -380" /><path
         id="path366"
         style="fill:#6d185d;fill-opacity:1;fill-rule:nonzero;stroke:none"
         d="m 6507.5,3760 h -940 v 380 h 940 v -380" /><path
         id="path368"
         style="fill:#6d185d;fill-opacity:1;fill-rule:nonzero;stroke:none"
         d="m 5307.5,3760 h -940 v 380 h 940 v -380" /><path
         id="path370"
         style="fill:#6d185d;fill-opacity:1;fill-rule:nonzero;stroke:none"
         d="m 9107.5,3640 h 1140 v 640 h -1140 z m 1210,-70 h -1280 v 780 h 1280 v -780" /><path
         id="path372"
         style="fill:#6d185d;fill-opacity:1;fill-rule:nonzero;stroke:none"
         d="m 7897.5,3640 h 1140 v 640 h -1140 z m 1210,-70 h -1280 v 780 h 1280 v -780" /><path
         id="path374"
         style="fill:#6d185d;fill-opacity:1;fill-rule:nonzero;stroke:none"
         d="m 6687.5,3640 h 1140 v 640 h -1140 z m 1210,-70 h -1280 v 780 h 1280 v -780" /><path
         id="path376"
         style="fill:#6d185d;fill-opacity:1;fill-rule:nonzero;stroke:none"
         d="m 5477.5,3640 h 1140 v 640 h -1140 z m 1210,-70 h -1280 v 780 h 1280 v -780" /><path
         id="path378"
         style="fill:#6d185d;fill-opacity:1;fill-rule:nonzero;stroke:none"
         d="m 4267.5,3640 h 1140 v 640 h -1140 z m 1210,-70 h -1280 v 780 h 1280 v -780" /><path
         id="path380"
         style="fill:#6d185d;fill-opacity:1;fill-rule:nonzero;stroke:none"
         d="m 10217.5,4610 h -6060 v 50 h 6060 v -50" /><path
         id="path382"
         style="fill:#6d185d;fill-opacity:1;fill-rule:nonzero;stroke:none"
         d="m 5682.5,2115 -45,-4.1 V 2900 h -280 v -800 h -45 v -170 h 260 v 5 l 140,60 v 120 h -30" /><path
         id="path384"
         style="fill:#6d185d;fill-opacity:1;fill-rule:nonzero;stroke:none"
         d="m 6852.5,2115 -45,-4.1 V 2900 h -280 v -800 h -45 v -170 h 260 v 5 l 140,60 v 120 h -30" /><path
         id="path386"
         style="fill:#6d185d;fill-opacity:1;fill-rule:nonzero;stroke:none"
         d="m 9232.5,2095 -45,-4.1 V 2880 h -280 v -800 h -45 v -170 h 260 v 5 l 140,60 v 120 h -30" /><path
         id="path388"
         style="fill:#6d185d;fill-opacity:1;fill-rule:nonzero;stroke:none"
         d="m 8042.5,2095 -45,-4.1 V 2880 h -280 v -800 h -45 v -170 h 260 v 5 l 140,60 v 120 h -30" /><path
         id="path390"
         style="fill:#6d185d;fill-opacity:1;fill-rule:nonzero;stroke:none"
         d="m 4097.5,4580 h -1080 v 50 h 1080 v -50" /><path
         id="path392"
         style="fill:#6d185d;fill-opacity:1;fill-rule:nonzero;stroke:none"
         d="m 14047.5,4420 h -2720 v 80 h 2720 v -80" /><path
         id="path394"
         style="fill:#6d185d;fill-opacity:1;fill-rule:nonzero;stroke:none"
         d="m 13667.5,2470 h -100 v 2020 h 100 V 2470" /><path
         id="path396"
         style="fill:#6d185d;fill-opacity:1;fill-rule:nonzero;stroke:none"
         d="m 14077.5,2470 h -100 v 2030 h 100 V 2470" /><path
         id="path398"
         style="fill:#6d185d;fill-opacity:1;fill-rule:nonzero;stroke:none"
         d="m 11397.5,2470 h -100 v 2030 h 100 V 2470" /><path
         id="path400"
         style="fill:#6d185d;fill-opacity:1;fill-rule:nonzero;stroke:none"
         d="m 11807.5,2470 h -100 v 2030 h 100 V 2470" /><path
         id="path402"
         style="fill:#6d185d;fill-opacity:1;fill-rule:nonzero;stroke:none"
         d="m 12733.3,4321.9 v -154.2 c 0,0 151.7,0 135.2,-92.5 0,0 164.6,46.3 164.6,-77.1 0,0 181.1,46.3 197.5,-138.7 0,0 164.6,30.8 148.2,-138.8 0,0 65.8,-46.2 49.3,-92.5 h 49.4 v 693.8 h -744.2" /><path
         id="path404"
         style="fill:#6d185d;fill-opacity:1;fill-rule:nonzero;stroke:none"
         d="m 12661.7,4321.9 v -154.2 c 0,0 -171.7,0 -155.2,-92.5 0,0 -164.6,46.3 -164.6,-77.1 0,0 -181.1,46.3 -197.5,-138.7 0,0 -164.6,30.8 -148.1,-138.8 0,0 -65.9,-46.2 -49.4,-92.5 h -49.4 v 693.8 h 764.2" /><path
         id="path406"
         style="fill:#bf237a;fill-opacity:1;fill-rule:nonzero;stroke:none"
         d="m 10027.5,4710 h 190 v 190.4 c 0,31 -15.5,59.9 -41.2,77.1 v 0 c -29.8,19.8 -68.4,20.8 -99.1,2.3 l -4.7,-2.8 c -27.9,-16.8 -45,-46.9 -45,-79.4 V 4710" /><path
         id="path408"
         style="fill:#bf237a;fill-opacity:1;fill-rule:nonzero;stroke:none"
         d="m 9777.5,4710 h 190 v 190.4 c 0,31 -15.47,59.9 -41.24,77.1 v 0 c -29.78,19.8 -68.33,20.8 -99.01,2.3 l -4.79,-2.8 c -27.89,-16.8 -44.96,-46.9 -44.96,-79.4 V 4710" /><path
         id="path410"
         style="fill:#bf237a;fill-opacity:1;fill-rule:nonzero;stroke:none"
         d="m 9527.5,4710 h 190 v 190.4 c 0,31 -15.47,59.9 -41.24,77.1 v 0 c -29.78,19.8 -68.33,20.8 -99.01,2.3 l -4.79,-2.8 c -27.89,-16.8 -44.96,-46.9 -44.96,-79.4 V 4710" /><path
         id="path412"
         style="fill:#bf237a;fill-opacity:1;fill-rule:nonzero;stroke:none"
         d="m 9277.5,4710 h 190 v 190.4 c 0,31 -15.47,59.9 -41.24,77.1 v 0 c -29.78,19.8 -68.33,20.8 -99.01,2.3 l -4.79,-2.8 c -27.89,-16.8 -44.96,-46.9 -44.96,-79.4 V 4710" /><path
         id="path414"
         style="fill:#bf237a;fill-opacity:1;fill-rule:nonzero;stroke:none"
         d="m 9027.5,4710 h 190 v 190.4 c 0,31 -15.47,59.9 -41.24,77.1 v 0 c -29.78,19.8 -68.33,20.8 -99.01,2.3 l -4.79,-2.8 c -27.89,-16.8 -44.96,-46.9 -44.96,-79.4 V 4710" /><path
         id="path416"
         style="fill:#bf237a;fill-opacity:1;fill-rule:nonzero;stroke:none"
         d="m 8777.5,4710 h 190 v 190.4 c 0,31 -15.47,59.9 -41.24,77.1 v 0 c -29.78,19.8 -68.33,20.8 -99.01,2.3 l -4.79,-2.8 c -27.89,-16.8 -44.96,-46.9 -44.96,-79.4 V 4710" /><path
         id="path418"
         style="fill:#bf237a;fill-opacity:1;fill-rule:nonzero;stroke:none"
         d="m 8527.5,4710 h 190 v 190.4 c 0,31 -15.47,59.9 -41.24,77.1 v 0 c -29.78,19.8 -68.33,20.8 -99.01,2.3 l -4.79,-2.8 c -27.89,-16.8 -44.96,-46.9 -44.96,-79.4 V 4710" /><path
         id="path420"
         style="fill:#bf237a;fill-opacity:1;fill-rule:nonzero;stroke:none"
         d="m 8277.5,4710 h 190 v 190.4 c 0,31 -15.47,59.9 -41.24,77.1 v 0 c -29.78,19.8 -68.33,20.8 -99.01,2.3 l -4.79,-2.8 c -27.89,-16.8 -44.96,-46.9 -44.96,-79.4 V 4710" /><path
         id="path422"
         style="fill:#bf237a;fill-opacity:1;fill-rule:nonzero;stroke:none"
         d="m 8027.5,4710 h 190 v 190.4 c 0,31 -15.47,59.9 -41.24,77.1 v 0 c -29.78,19.8 -68.33,20.8 -99.01,2.3 l -4.79,-2.8 c -27.89,-16.8 -44.96,-46.9 -44.96,-79.4 V 4710" /><path
         id="path424"
         style="fill:#bf237a;fill-opacity:1;fill-rule:nonzero;stroke:none"
         d="m 7777.5,4710 h 190 v 190.4 c 0,31 -15.47,59.9 -41.24,77.1 v 0 c -29.78,19.8 -68.33,20.8 -99.01,2.3 l -4.79,-2.8 c -27.89,-16.8 -44.96,-46.9 -44.96,-79.4 V 4710" /><path
         id="path426"
         style="fill:#bf237a;fill-opacity:1;fill-rule:nonzero;stroke:none"
         d="m 7527.5,4710 h 190 v 190.4 c 0,31 -15.47,59.9 -41.24,77.1 v 0 c -29.78,19.8 -68.33,20.8 -99.01,2.3 l -4.79,-2.8 c -27.89,-16.8 -44.96,-46.9 -44.96,-79.4 V 4710" /><path
         id="path428"
         style="fill:#bf237a;fill-opacity:1;fill-rule:nonzero;stroke:none"
         d="m 7277.5,4710 h 190 v 190.4 c 0,31 -15.47,59.9 -41.24,77.1 v 0 c -29.78,19.8 -68.33,20.8 -99.01,2.3 l -4.79,-2.8 c -27.89,-16.8 -44.96,-46.9 -44.96,-79.4 V 4710" /><path
         id="path430"
         style="fill:#bf237a;fill-opacity:1;fill-rule:nonzero;stroke:none"
         d="m 7027.5,4710 h 190 v 190.4 c 0,31 -15.47,59.9 -41.24,77.1 v 0 c -29.78,19.8 -68.33,20.8 -99.01,2.3 l -4.79,-2.8 c -27.89,-16.8 -44.96,-46.9 -44.96,-79.4 V 4710" /><path
         id="path432"
         style="fill:#bf237a;fill-opacity:1;fill-rule:nonzero;stroke:none"
         d="m 6777.5,4710 h 190 v 190.4 c 0,31 -15.47,59.9 -41.24,77.1 v 0 c -29.78,19.8 -68.33,20.8 -99.01,2.3 l -4.79,-2.8 c -27.89,-16.8 -44.96,-46.9 -44.96,-79.4 V 4710" /><path
         id="path434"
         style="fill:#bf237a;fill-opacity:1;fill-rule:nonzero;stroke:none"
         d="m 6527.5,4710 h 190 v 190.4 c 0,31 -15.47,59.9 -41.24,77.1 v 0 c -29.78,19.8 -68.33,20.8 -99.01,2.3 l -4.79,-2.8 c -27.89,-16.8 -44.96,-46.9 -44.96,-79.4 V 4710" /><path
         id="path436"
         style="fill:#bf237a;fill-opacity:1;fill-rule:nonzero;stroke:none"
         d="m 6277.5,4710 h 190 v 190.4 c 0,31 -15.47,59.9 -41.24,77.1 v 0 c -29.78,19.8 -68.33,20.8 -99.01,2.3 l -4.79,-2.8 c -27.89,-16.8 -44.96,-46.9 -44.96,-79.4 V 4710" /><path
         id="path438"
         style="fill:#bf237a;fill-opacity:1;fill-rule:nonzero;stroke:none"
         d="m 6027.5,4710 h 190 v 190.4 c 0,31 -15.47,59.9 -41.24,77.1 v 0 c -29.78,19.8 -68.33,20.8 -99.01,2.3 l -4.79,-2.8 c -27.89,-16.8 -44.96,-46.9 -44.96,-79.4 V 4710" /><path
         id="path440"
         style="fill:#bf237a;fill-opacity:1;fill-rule:nonzero;stroke:none"
         d="m 5777.5,4710 h 190 v 190.4 c 0,31 -15.47,59.9 -41.24,77.1 v 0 c -29.78,19.8 -68.33,20.8 -99.01,2.3 l -4.79,-2.8 c -27.89,-16.8 -44.96,-46.9 -44.96,-79.4 V 4710" /><path
         id="path442"
         style="fill:#bf237a;fill-opacity:1;fill-rule:nonzero;stroke:none"
         d="m 5527.5,4710 h 190 v 190.4 c 0,31 -15.47,59.9 -41.24,77.1 v 0 c -29.78,19.8 -68.33,20.8 -99.01,2.3 l -4.79,-2.8 c -27.89,-16.8 -44.96,-46.9 -44.96,-79.4 V 4710" /><path
         id="path444"
         style="fill:#bf237a;fill-opacity:1;fill-rule:nonzero;stroke:none"
         d="m 5277.5,4710 h 190 v 190.4 c 0,31 -15.47,59.9 -41.24,77.1 v 0 c -29.78,19.8 -68.33,20.8 -99.01,2.3 l -4.79,-2.8 c -27.89,-16.8 -44.96,-46.9 -44.96,-79.4 V 4710" /><path
         id="path446"
         style="fill:#bf237a;fill-opacity:1;fill-rule:nonzero;stroke:none"
         d="m 5027.5,4710 h 190 v 190.4 c 0,31 -15.47,59.9 -41.24,77.1 v 0 c -29.78,19.8 -68.33,20.8 -99.01,2.3 l -4.79,-2.8 c -27.89,-16.8 -44.96,-46.9 -44.96,-79.4 V 4710" /><path
         id="path448"
         style="fill:#bf237a;fill-opacity:1;fill-rule:nonzero;stroke:none"
         d="m 4777.5,4710 h 190 v 190.4 c 0,31 -15.47,59.9 -41.24,77.1 v 0 c -29.78,19.8 -68.33,20.8 -99.01,2.3 l -4.79,-2.8 c -27.89,-16.8 -44.96,-46.9 -44.96,-79.4 V 4710" /><path
         id="path450"
         style="fill:#bf237a;fill-opacity:1;fill-rule:nonzero;stroke:none"
         d="m 4527.5,4710 h 190 v 190.4 c 0,31 -15.47,59.9 -41.24,77.1 v 0 c -29.78,19.8 -68.33,20.8 -99.01,2.3 l -4.79,-2.8 c -27.89,-16.8 -44.96,-46.9 -44.96,-79.4 V 4710" /><path
         id="path452"
         style="fill:#bf237a;fill-opacity:1;fill-rule:nonzero;stroke:none"
         d="m 4277.5,4710 h 190 v 190.4 c 0,31 -15.47,59.9 -41.24,77.1 v 0 c -29.78,19.8 -68.33,20.8 -99.01,2.3 l -4.79,-2.8 c -27.89,-16.8 -44.96,-46.9 -44.96,-79.4 V 4710" /><g
         transform="scale(1.29923)"
         id="g454"><path
           id="path456"
           style="fill:#bf237a;fill-opacity:1;fill-rule:nonzero;stroke:none"
           d="m 16153.8,3609.82 h 146.2 v 146.55 c 0,23.86 -11.9,46.1 -31.7,59.34 v 0 c -22.9,15.24 -52.7,16.01 -76.3,1.77 l -3.6,-2.15 c -21.5,-12.93 -34.6,-36.1 -34.6,-61.11 v -144.4" /></g><g
         transform="scale(1.2839)"
         id="g458"><path
           id="path460"
           style="fill:#bf237a;fill-opacity:1;fill-rule:nonzero;stroke:none"
           d="m 16152,3652.94 h 148 v 148.31 c 0,24.14 -12.1,46.65 -32.1,60.04 v 0 c -23.2,15.43 -53.3,16.21 -77.2,1.8 l -3.6,-2.18 c -21.8,-13.09 -35.1,-36.53 -35.1,-61.85 v -146.12" /></g><g
         transform="scale(1.26856)"
         id="g462"><path
           id="path464"
           style="fill:#bf237a;fill-opacity:1;fill-rule:nonzero;stroke:none"
           d="m 16150.2,3697.11 h 149.8 v 150.09 c 0,24.44 -12.2,47.22 -32.5,60.78 v 0 c -23.5,15.61 -53.9,16.4 -78.1,1.81 l -3.7,-2.2 c -22,-13.25 -35.5,-36.97 -35.5,-62.59 v -147.89" /></g><g
         transform="scale(1.25322)"
         id="g466"><path
           id="path468"
           style="fill:#bf237a;fill-opacity:1;fill-rule:nonzero;stroke:none"
           d="m 16148.4,3742.36 h 151.6 v 151.93 c 0,24.73 -12.4,47.79 -32.9,61.52 v 0 c -23.8,15.8 -54.6,16.59 -79.1,1.83 l -3.7,-2.23 c -22.3,-13.41 -35.9,-37.42 -35.9,-63.36 v -149.69" /></g><g
         transform="scale(1.23788)"
         id="g470"><path
           id="path472"
           style="fill:#bf237a;fill-opacity:1;fill-rule:nonzero;stroke:none"
           d="m 16146.5,3788.73 h 153.5 v 153.81 c 0,25.04 -12.5,48.39 -33.3,62.28 v 0 c -24.1,16 -55.2,16.8 -80,1.86 l -3.8,-2.26 c -22.6,-13.58 -36.4,-37.89 -36.4,-64.14 v -151.55" /></g><g
         transform="scale(1.22255)"
         id="g474"><path
           id="path476"
           style="fill:#bf237a;fill-opacity:1;fill-rule:nonzero;stroke:none"
           d="M 16144.6,3836.26 H 16300 V 3992 c 0,25.36 -12.7,48.99 -33.7,63.06 v 0 c -24.4,16.2 -55.9,17.02 -81.1,1.88 l -3.8,-2.29 c -22.8,-13.74 -36.8,-38.36 -36.8,-64.94 v -153.45" /></g><g
         transform="scale(1.20721)"
         id="g478"><path
           id="path480"
           style="fill:#bf237a;fill-opacity:1;fill-rule:nonzero;stroke:none"
           d="m 16142.6,3885 h 157.4 v 157.72 c 0,25.68 -12.8,49.61 -34.1,63.86 v 0 c -24.7,16.4 -56.7,17.23 -82.1,1.91 l -3.9,-2.32 c -23.1,-13.92 -37.3,-38.85 -37.3,-65.77 V 3885" /></g><g
         transform="scale(1.19187)"
         id="g482"><path
           id="path484"
           style="fill:#bf237a;fill-opacity:1;fill-rule:nonzero;stroke:none"
           d="m 16140.6,3934.99 h 159.4 v 159.75 c 0,26.01 -13,50.26 -34.6,64.69 v 0 c -25,16.61 -57.4,17.45 -83.1,1.93 l -4,-2.35 c -23.4,-14.1 -37.7,-39.35 -37.7,-66.62 v -157.4" /></g><g
         transform="scale(1.17653)"
         id="g486"><path
           id="path488"
           style="fill:#bf237a;fill-opacity:1;fill-rule:nonzero;stroke:none"
           d="m 16138.5,3986.29 h 161.5 v 161.83 c 0,26.35 -13.2,50.91 -35,65.53 v 0 c -25.3,16.83 -58.2,17.68 -84.2,1.95 l -4,-2.38 c -23.8,-14.28 -38.3,-39.86 -38.3,-67.48 v -159.45" /></g><g
         transform="scale(1.1612)"
         id="g490"><path
           id="path492"
           style="fill:#bf237a;fill-opacity:1;fill-rule:nonzero;stroke:none"
           d="m 16136.4,4038.94 h 163.6 v 163.97 c 0,26.7 -13.3,51.58 -35.5,66.39 v 0 c -25.6,17.06 -58.9,17.92 -85.3,1.99 l -4.1,-2.42 c -24,-14.47 -38.7,-40.38 -38.7,-68.37 v -161.56" /></g><g
         transform="scale(1.14586)"
         id="g494"><path
           id="path496"
           style="fill:#bf237a;fill-opacity:1;fill-rule:nonzero;stroke:none"
           d="m 16134.2,4093 h 165.8 v 166.17 c 0,27.05 -13.5,52.27 -36,67.28 v 0 c -26,17.28 -59.6,18.15 -86.4,2.01 l -4.1,-2.45 c -24.4,-14.66 -39.3,-40.93 -39.3,-69.29 V 4093" /></g><g
         transform="scale(1.13052)"
         id="g498"><path
           id="path500"
           style="fill:#bf237a;fill-opacity:1;fill-rule:nonzero;stroke:none"
           d="m 16131.9,4148.53 h 168.1 v 168.42 c 0,27.42 -13.7,52.98 -36.4,68.19 v 0 c -26.4,17.52 -60.5,18.4 -87.7,2.04 l -4.2,-2.48 c -24.6,-14.86 -39.8,-41.48 -39.8,-70.23 v -165.94" /></g><g
         transform="scale(1.11518)"
         id="g502"><path
           id="path504"
           style="fill:#bf237a;fill-opacity:1;fill-rule:nonzero;stroke:none"
           d="m 16129.6,4205.58 h 170.4 v 170.74 c 0,27.8 -13.9,53.71 -36.9,69.13 v 0 c -26.8,17.76 -61.4,18.66 -88.9,2.07 l -4.2,-2.51 c -25,-15.07 -40.4,-42.06 -40.4,-71.2 v -168.23" /></g><g
         transform="scale(1.09985)"
         id="g506"><path
           id="path508"
           style="fill:#bf237a;fill-opacity:1;fill-rule:nonzero;stroke:none"
           d="m 16127.2,4264.23 h 172.8 v 173.12 c 0,28.18 -14.1,54.46 -37.5,70.1 v 0 c -27.1,18 -62.1,18.91 -90.1,2.09 l -4.2,-2.55 c -25.4,-15.27 -41,-42.64 -41,-72.19 v -170.57" /></g><g
         transform="scale(1.08451)"
         id="g510"><path
           id="path512"
           style="fill:#bf237a;fill-opacity:1;fill-rule:nonzero;stroke:none"
           d="m 16124.8,4324.54 h 175.2 v 175.56 c 0,28.59 -14.3,55.23 -38,71.09 v 0 c -27.5,18.26 -63.1,19.18 -91.4,2.12 l -4.3,-2.58 c -25.7,-15.49 -41.5,-43.24 -41.5,-73.21 v -172.98" /></g><g
         transform="scale(1.06917)"
         id="g514"><path
           id="path516"
           style="fill:#bf237a;fill-opacity:1;fill-rule:nonzero;stroke:none"
           d="m 16122.3,4386.57 h 177.7 v 178.09 c 0,28.99 -14.5,56.02 -38.5,72.11 v 0 c -27.9,18.52 -64,19.45 -92.7,2.15 l -4.4,-2.62 c -26.1,-15.71 -42.1,-43.87 -42.1,-74.26 v -175.47" /></g><g
         transform="scale(1.05383)"
         id="g518"><path
           id="path520"
           style="fill:#bf237a;fill-opacity:1;fill-rule:nonzero;stroke:none"
           d="m 16119.7,4450.41 h 180.3 v 180.68 c 0,29.42 -14.7,56.84 -39.1,73.16 v 0 c -28.3,18.79 -64.9,19.74 -94,2.18 l -4.5,-2.65 c -26.5,-15.95 -42.7,-44.51 -42.7,-75.35 v -178.02" /></g><g
         transform="scale(1.0385)"
         id="g522"><path
           id="path524"
           style="fill:#bf237a;fill-opacity:1;fill-rule:nonzero;stroke:none"
           d="m 16117,4516.14 h 183 v 183.35 c 0,29.85 -14.9,57.67 -39.7,74.24 v 0 c -28.7,19.06 -65.8,20.03 -95.4,2.21 l -4.5,-2.7 c -26.9,-16.17 -43.4,-45.16 -43.4,-76.45 v -180.65" /></g><g
         transform="scale(1.02316)"
         id="g526"><path
           id="path528"
           style="fill:#bf237a;fill-opacity:1;fill-rule:nonzero;stroke:none"
           d="m 16114.3,4583.84 h 185.7 v 186.09 c 0,30.3 -15.1,58.55 -40.3,75.36 v 0 c -29.1,19.35 -66.8,20.33 -96.8,2.24 l -4.6,-2.73 c -27.3,-16.42 -44,-45.84 -44,-77.6 v -183.36" /></g><g
         transform="scale(1.00782)"
         id="g530"><path
           id="path532"
           style="fill:#bf237a;fill-opacity:1;fill-rule:nonzero;stroke:none"
           d="m 16111.5,4653.6 h 188.5 v 188.92 c 0,30.76 -15.4,59.44 -40.9,76.5 v 0 c -29.5,19.65 -67.8,20.64 -98.3,2.29 l -4.7,-2.78 c -27.7,-16.67 -44.6,-46.54 -44.6,-78.79 V 4653.6" /></g><path
         id="path534"
         style="fill:#bf237a;fill-opacity:1;fill-rule:nonzero;stroke:none"
         d="m 15987.5,4690 h 190 v 190.4 c 0,31 -15.5,59.9 -41.2,77.1 v 0 c -29.8,19.8 -68.4,20.8 -99.1,2.3 l -4.7,-2.8 c -27.9,-16.8 -45,-46.9 -45,-79.4 V 4690" /><path
         id="path536"
         style="fill:#bf237a;fill-opacity:1;fill-rule:nonzero;stroke:none"
         d="m 15737.5,4690 h 190 v 190.4 c 0,31 -15.5,59.9 -41.2,77.1 v 0 c -29.8,19.8 -68.4,20.8 -99.1,2.3 l -4.7,-2.8 c -27.9,-16.8 -45,-46.9 -45,-79.4 V 4690" /><path
         id="path538"
         style="fill:#bf237a;fill-opacity:1;fill-rule:nonzero;stroke:none"
         d="m 15487.5,4690 h 190 v 190.4 c 0,31 -15.5,59.9 -41.2,77.1 v 0 c -29.8,19.8 -68.4,20.8 -99.1,2.3 l -4.7,-2.8 c -27.9,-16.8 -45,-46.9 -45,-79.4 V 4690" /><path
         id="path540"
         style="fill:#bf237a;fill-opacity:1;fill-rule:nonzero;stroke:none"
         d="m 15237.5,4690 h 190 v 190.4 c 0,31 -15.5,59.9 -41.2,77.1 v 0 c -29.8,19.8 -68.4,20.8 -99.1,2.3 l -4.7,-2.8 c -27.9,-16.8 -45,-46.9 -45,-79.4 V 4690" /><path
         id="path542"
         style="fill:#bf237a;fill-opacity:1;fill-rule:nonzero;stroke:none"
         d="m 11167.5,1790 100,430 h 2790 l 230,-430 h -3120" /><path
         id="path544"
         style="fill:#bf237a;fill-opacity:1;fill-rule:nonzero;stroke:none"
         d="m 4207.52,5095 -0.04,30 6010.02,10 v -30 l -6009.98,-10" /><g
         transform="scale(1.30291)"
         id="g546"><path
           id="path548"
           style="fill:#bf237a;fill-opacity:1;fill-rule:nonzero;stroke:none"
           d="m 11687.3,3883.6 v 23.03 l 4612.7,7.67 v -23.02 l -4612.7,-7.68" /></g><path
         id="path550"
         style="fill:#1b2646;fill-opacity:1;fill-rule:nonzero;stroke:none"
         d="m 3297.5,8340 h 190 v 350 h -190 v -350" /><g
         transform="scale(1.35936)"
         id="g552"><path
           id="path554"
           style="fill:#1b2646;fill-opacity:1;fill-rule:nonzero;stroke:none"
           d="m 16160.2,6135.26 h 139.8 v 257.47 h -139.8 v -257.47" /></g><g
         transform="scale(1.3885)"
         id="g556"><path
           id="path558"
           style="fill:#bf237a;fill-opacity:1;fill-rule:nonzero;stroke:none"
           d="m 16300,5894.86 v -36.01 h -21.6 c -20.2,-2.16 -38.2,-7.27 -53.9,-14.47 -443.7,109.68 -806,28.95 -978.6,-27.01 -36.5,17.86 -69.4,27.08 -69.4,27.08 v 21.61 h 36 v 129.63 h 151.2 l 0.3,10.81 h 755.9 v -3.61 h 158.5 v -108.03 h 21.6" /></g><path
         id="path560"
         style="fill:#bf237a;fill-opacity:1;fill-rule:nonzero;stroke:none"
         d="m 4352.5,8135 -10,-40 c 0,0 -34.7,3.3 -77.3,-4.3 -553,165.2 -1067.9,80.4 -1365,-1.2 -34.6,19.3 -62.7,30.5 -62.7,30.5 l -40,40 40,20 v 150 l 124.8,15 1141.1,-20.2 229.1,-39.8 -20,-150 h 40" /><g
         transform="scale(1.37132)"
         id="g562"><path
           id="path564"
           style="fill:#bf237a;fill-opacity:1;fill-rule:nonzero;stroke:none"
           d="m 16300,7908.44 h -29.2 l 0.2,-4.44 c -293,97.2 -528.7,42.14 -671.1,-17.94 v 0.51 l -36.4,14.58 -7.3,29.17 h 51 c 0,0 1.6,9.04 2.9,22.97 261.6,83.94 520.8,55.5 653.4,30.7 v -17.21 h 36.5 v -58.34" /></g><g
         transform="scale(1.37623)"
         id="g566"><path
           id="path568"
           style="fill:#bf237a;fill-opacity:1;fill-rule:nonzero;stroke:none"
           d="m 16300,5634.97 v -36.33 h -43.6 v -19.04 l -778.3,-5.66 0.8,24.7 h -36.3 v 29.07 h 36.3 v 12.49 l 777.5,11.78 v -17.01 h 43.6" /></g><g
         transform="scale(1.38819)"
         id="g570"><path
           id="path572"
           style="fill:#bf237a;fill-opacity:1;fill-rule:nonzero;stroke:none"
           d="m 16300,3691.86 v -97.25 h -1087.7 v 133.27 h 75.6 l 0.8,24.7 827.6,-5.18 v -55.54 h 183.7" /></g><path
         id="path574"
         style="fill:#bf237a;fill-opacity:1;fill-rule:nonzero;stroke:none"
         d="M 4207.5,5210 V 4990 H 2896.7 c -11.8,6.5 -19.2,10 -19.2,10 h -60 v 150 h 230 l -0.2,60 h 1160.2" /><path
         id="path576"
         style="fill:#bf237a;fill-opacity:1;fill-rule:nonzero;stroke:none"
         d="m 4162.5,7705 h -60 l 0.1,-3.1 -1065.1,15.9 v 12.2 h -70 v 50 h 70 l -1.1,17.5 1076.1,-15.9 V 7765 h 50 v -60" /><path
         id="path578"
         style="fill:#bf237a;fill-opacity:1;fill-rule:nonzero;stroke:none"
         d="m 4082.5,10835 -16.9,-67.8 c -184.8,155.2 -694.5,116.5 -928.2,89 l 0.1,3.8 -70,10 v 40 h 50 c 0,0 -0.4,4 -1.1,11.2 472.2,101.3 787.6,20.4 927.9,-33.3 l -1.8,-32.9 40,-20" /><g
         transform="scale(1.3888)"
         id="g580"><path
           id="path582"
           style="fill:#f9a772;fill-opacity:1;fill-rule:nonzero;stroke:none"
           d="m 15221.6,1119.53 243.6,-28.66 h 467.1 l 241.6,71.06 -50.4,2096.27 h 21.7 v 36 h -28.8 l 0.2,148.91 c 0.5,1.29 51.8,129.53 172.6,145.88 v 97.64 h -183.6 v 1864.91 h 43.2 v 28.8 h -43.2 l 0.1,112.28 c 0.2,1.12 22.2,112.05 113.7,153.74 16.9,7.71 35.4,12.68 55,14.78 l 18.4,0.02 v 28.8 h -21.6 v 108.01 h -158.3 l -0.2,7.13 -50.5,1807.38 h 29 v 50.4 h -36 v 148.76 l 0.6,0.92 c 3.6,5 87,121.93 166.9,116.88 0.6,0.01 1.2,-0.06 1.8,-0.14 h 10.7 v 28.8 h -28.8 v 136.81 h -165.8 l 0.2,3.72 14.5,434.07 143.3,78.85 -6.1,24.65 -120.3,70.75 h -45.8 l 0.1,69.27 c 2,8.09 47,198.86 -163.1,254.87 l -1,0.26 -0.6,0.76 c -1.1,1.09 -92.8,100.76 -102.3,285.11 -15.2,-113.42 -56.1,-322.33 -151,-322.35 -1,0 -2,0.02 -3.1,0.08 -6.3,-1.09 -92.9,-17.48 -139.4,-89.59 -33.1,-51.6 -38.5,-119.25 -15.8,-201.05 l 0.1,-0.96 v -52.43 l -165.6,-100.81 v -17.52 l 122.4,-72 v -393.52 l -158.4,-50.4 v -106.22 l -13.1,-26.17 c 2,-0.86 4.7,-2.08 8.1,-3.63 43,-19.54 145,-69.58 163.2,-111.94 14.3,-33.39 13.5,-81.45 10.3,-115.89 -1.3,-13.72 -2.9,-22.57 -2.9,-22.94 l -0.5,-3 h -48.9 l 5.7,-22.54 36.5,-14.63 v -2.43 l -43.2,-1796.51 h -151.2 v -129.61 h -36 v -15.31 c 8.6,-2.59 37,-11.62 67.4,-26.53 49.6,-24.2 106.9,-64.79 98.2,-120.72 v -125.46 h -36 v -21.6 h 36.2 l -1,-28.2 -56.9,-1800.71 h -705.5 v 36 h -115.2 v 424.83 h 64.8 v 21.6 h -57.6 v 64.8 h -44.7 l 1.7,4.83 c 2,5.69 46.8,141.48 -134,225.49 -16.8,-2.03 -196.6,-28.27 -183,-212.03 l 0.3,-3.89 h -29.1 v -64.8 h -43.2 v -21.6 h 57.6 v -417.63 h -115.2 v -43.2 h -540.1 v 302.42 h 36 v 108 h -43.2 v 69.27 l 0.5,0.8 c 1.5,3.16 162.2,318.82 51.6,637.88 -70.7,204.01 -235.3,365.66 -489.2,480.45 l -5.7,2.57 47.2,33.73 c -37.8,5.54 -178,52.43 -488.1,417 h -68.5 c -24.2,-32.51 -319.2,-426 -455.2,-426.05 -3.6,0 -7.1,0.27 -10.5,0.83 l 38.7,-33.15 -5.6,-2.2 c -1.8,-0.75 -191.9,-77.42 -342.6,-251.23 -138.8,-160.2 -271.6,-438.23 -116.1,-852.99 l 0.2,-1.3 v -54 h -36 v -129.61 h 43.2 v -273.62 h -64.8 v -93.6 h -568.8 v 1382.48 h 43.2 v 36 h -50.4 v 424.83 h 36 v 36 h -36 v 3.6 c 0,2.24 1.8,222.97 156.6,317.77 -7.6,7.99 -35.4,29.99 -109.5,24.26 l -3.9,-0.3 v 302.71 h 72 v 36 h -65 l 0.2,3.83 c 0,1.08 6.2,107.73 -53.7,171.51 -29.8,31.77 -71.1,47.88 -122.7,47.88 -48.1,0 -84.9,-15.31 -109.5,-45.51 -56.1,-68.95 -31.3,-193.73 -31,-194.98 l 0.8,-4.33 h -79.9 v -36 h 71.9 l 7.4,-296.49 -4.8,1.42 c -58.8,17.64 -82,-19.1 -87.7,-30.6 162.4,-67 143,-302.31 142.8,-304.69 l -0.3,-3.28 h -21.3 v -36 h 36 v -123.33 l -4.4,1.01 c -89,20.53 -110.1,-51.96 -111,-55.04 l -2.1,-7.74 -4.4,6.73 c -21.9,33.81 -45.6,50.96 -70.5,50.96 -0.3,0 -0.5,0 -0.8,-0.01 -45.2,-0.56 -80.6,-57.5 -81,-58.07 l -8.7,-14.18 2,16.5 c 0.5,3.71 0.9,7.04 1.3,10.44 21.9,223.79 -198.1,458.51 -386.5,616 -204.62,171.06 -417.25,290.45 -419.33,291.63 l -6.41,3.57 84.75,36.32 c -174.4,7.05 -520.09,524.47 -546.59,564.49 h -161.65 c -292.91,-470.56 -498.92,-553.16 -545.94,-566.45 l 55.23,-27.62 -6.55,-3.2 C 8231.54,6098.28 8047.07,5870.19 7947.13,5705.62 7838.76,5527.23 7803.7,5382.93 7803.41,5381.49 l -1.08,-4.57 -4.18,2.25 c -68.69,37.44 -120.75,-14.99 -130.54,-25.89 -1.08,-1.26 -1.73,-2 -1.73,-2.04 l -3.31,-4.03 -2.6,4.53 c -0.86,1.43 -1.65,2.78 -2.52,4.07 -28.44,45.54 -60.77,43.01 -82.87,32.89 -14.4,-6.47 -24.05,-16.02 -24.2,-16.12 l -6.12,-6.12 v 163.48 h 36 v 82.8 c 13.33,226.58 132.64,252.6 152.01,255.32 2.8,11.07 1.22,19.9 -4.83,26.95 -25.7,29.87 -120.53,16.73 -121.47,16.59 l -4.1,-0.59 v 259.77 h 72 v 43.2 h -58.54 l 1.01,4.45 c 49.11,203.27 -147.04,283.04 -148.98,283.82 l -1.94,0.75 -23.33,140.32 -5.9,-147.36 -2.17,-0.88 c -168.27,-70.13 -149.19,-275.07 -148.97,-277.13 l 0.36,-3.97 h -72.37 v -50.4 h 86.41 v -252.81 l -4.32,0.87 c -38.74,7.74 -68.41,4.23 -88.21,-10.45 -16.01,-11.81 -20.87,-27.73 -22.22,-34.04 180.27,-64.61 132.17,-257.9 129.15,-269.28 v -75.13 h 43.2 v -417.63 h -50.4 v -50.4 h 57.6 V 3765.83 h -720.04 v 410.43 h 28.8 v 43.2 h -38.23 l 2.61,5.18 c 99.79,199.6 118.73,393.17 56.28,575.31 -123.22,359.37 -525.79,555.59 -529.85,557.53 l -14.3,6.85 h 15.86 c 21.44,0 56.66,26.16 70.76,37.35 -225.07,40.48 -437.24,347.84 -454.31,373.07 h -96.97 c -211.47,-310.28 -398.57,-380.27 -444.3,-393.32 l 47.68,-20.43 -6.9,-3.48 c -426.07,-214.89 -532.17,-507.42 -546.14,-714.97 -15.15,-225.08 71.63,-401.71 72.51,-403.51 l 0.38,-0.72 v -494.09 h -501.32 l -139.51,73.44 v 387.39 h 72 v 28.8 h -73.29 l 1.44,4.68 c 4.12,13.32 7.16,26.42 9.03,39.03 25.54,174.25 -170.39,243.83 -172.37,244.5 l -1.88,0.65 -37.55,162.72 -6.28,-169.62 -2.16,-0.88 c -152.11,-61.83 -176.12,-175.59 -176.9,-237.95 -0.49,-35.35 6.14,-59.91 6.2,-60.19 l 1.25,-4.54 h -94.72 v -28.8 h 93.47 l 14.63,-394.8 -2.36,-0.94 -216.66,-86.69 h -392.56 l -7.25,43.49 -166,14.4 -0.12,3.17 -64.91,1789.45 h 43.31 v 36 h -36 v 133.21 c 8.81,74.88 66.27,100.27 112.93,108.45 24.88,4.45 45.84,3.82 53.53,3.37 l 5.35,21.39 h -28.31 l 14.49,108.66 -165.1,28.84 -0.09,2.79 -57.7,1745.41 29.54,7.39 13.17,52.7 -28.33,14.17 7.33,131.97 c 15.62,73.05 81.67,98.36 119.65,107 11.11,2.53 19.82,3.66 24.35,4.11 v 102.37 l -141.89,63.85 -30.97,15.48 7.28,400.43 137.68,72.45 12.5,25.02 -150.54,107.52 0.38,2.23 c 21.68,127.68 4.48,228.35 -51.11,299.22 -71.18,90.73 -182.1,99.73 -183.22,99.81 l -2.78,0.2 -58.32,325.85 -61.49,-314.28 -1.83,-0.73 c -1.76,-0.7 -176.99,-71.13 -224.34,-187 -16.67,-40.81 -15.64,-82.87 3.09,-125.01 l 2.26,-5.06 h -38.74 l -14.17,-56.7 -1.76,-0.67 c -1.02,-0.39 -102.49,-39.48 -112.67,-79.48 -2.07,-8.15 -0.07,-15.61 6.12,-22.81 41.85,-48.85 112.47,-63.48 113.17,-63.63 l 2.85,-0.57 7.29,-437.6 -158.45,-50.42 v -85.57 l -26.4,-19.8 24.6,-18.45 c 1.54,-0.65 7.06,-3 15.11,-6.9 32.8,-16.01 109.1,-58.91 109.1,-111.46 0,-53.58 4.89,-106.3 6.39,-121.18 l 1.19,-12.03 h -36.38 V 7830 l 50.48,-7.21 -0.15,-5.94 -36,-1800.48 -179.94,-21.59 v -107.04 l -26.33,-13.17 24.76,-24.75 c 3.79,-1.56 22.6,-9.46 44.87,-21.88 45.21,-25.31 98.13,-65.13 93.49,-111.15 l 7.44,-118.45 h -50.63 v -28.8 h 50.4 v -12.38 l 7.22,-1852.53 h -165.63 v -100.81 l 41.14,-0.36 c 0.22,-0.07 5.53,-2.59 14.03,-7.27 33.2,-18.15 110.44,-66.68 110.44,-125.58 V 3330.2 h -21.6 v -28.8 h 21.69 l -0.09,-3.67 -50.33,-2164.45 176.78,-42.41 h 345.18 l 401.87,78.99 79.52,50.61 h 1.07 l 4071.82,-21.6 v -93.6 l 3752.76,-7.2 28.8,57.6 h 2.3 l 4148.9,28.8 z m 711.7,-35.86 h -468.6 l -246.4,28.94 -64.7,64.66 -4143.7,-28.8 -28.8,-57.6 h -2.2 l -3762.26,7.2 v 93.6 l -4063.6,21.6 -79.56,-50.33 -403.22,-79.2 -346.74,-0.07 -0.42,0.07 -182.83,43.92 0.06,2.88 50.32,2163.66 h -21.52 v 43.2 h 21.6 v 133.21 c 0,55.02 -74.62,101.75 -106.71,119.24 -6.54,3.6 -11.2,5.91 -12.91,6.77 h -45.99 v 115.21 h 165.61 l -0.14,39.6 -7.06,1810.91 h -50.4 v 43.2 h 50.17 l -6.96,111.39 c 4.26,42.72 -46.5,80.48 -89.82,104.73 -24.4,13.6 -44.53,21.67 -44.73,21.76 l -1.21,0.79 -32.33,32.34 31.28,15.64 v 108.97 l 180.07,21.61 35.86,1793.8 -50.32,7.19 v 35.52 h 35.63 l -0.4,4.12 c -1.51,14.95 -6.43,67.97 -6.43,121.89 0,48.49 -73.47,89.57 -105.05,104.99 -9.12,4.42 -15.06,6.86 -15.12,6.88 l -0.8,0.46 -32.64,24.48 31.2,23.4 v 87.24 l 158.37,50.39 -7.12,426.5 c -14.05,3.27 -75.24,19.7 -114.38,65.36 -7.71,9 -10.28,18.85 -7.62,29.28 10.43,41.02 101.01,78.13 115.32,83.76 l 14.62,58.52 h 33.37 c -17.45,42.31 -17.79,84.54 -1.01,125.6 45.87,112.21 207.41,182.26 226.51,190.21 l 68.13,348.18 64.11,-358.27 c 18.04,-2.05 118.73,-17.14 185.49,-102.17 56.63,-72.12 74.45,-173.97 52.98,-302.74 l 151.88,-108.48 -16.29,-32.6 -135.95,-71.55 -7.12,-391.62 26.77,-13.39 146,-65.69 V 8050.3 l -3.39,-0.2 c -0.11,-0.01 -11.02,-0.68 -26.56,-4.23 -36.31,-8.26 -99.43,-32.35 -114.14,-100.94 l -7,-126.69 29.27,-14.63 -15.63,-62.51 -28.07,-7.01 57.41,-1736.68 166.14,-28.89 -14.32,-107.36 h 29.31 l -9.08,-36.28 -3.08,0.29 c -0.25,0.03 -24.9,2.27 -54.68,-3.05 -44.27,-7.77 -98.75,-31.73 -107.01,-101.79 l 0.02,-125.59 h 36 v -50.4 h -43.07 l 64.56,-1778.8 165.22,-14.4 7.16,-42.91 h 385.08 l 213.01,85.18 -14.18,382.85 h -93.73 v 43.2 h 92.64 c -1.96,8.86 -5.76,29.81 -5.38,57.68 0.8,63.79 25.22,180.01 179.24,243.59 l 8.12,219.21 48.86,-211.75 c 20.62,-7.79 200.27,-80.91 175.26,-251.63 -1.72,-11.52 -4.36,-23.4 -7.88,-35.5 h 70.77 v -43.2 h -72 v -375.87 l 134.1,-70.56 h 492.33 v 485.17 c -6.3,13.1 -87.57,186.85 -72.89,406.12 8.93,133.38 51.03,257.3 125.14,368.31 91.43,136.95 232.06,254.49 418.09,349.43 l -54.47,23.34 11.95,2.08 c 2.07,0.36 210.35,40.22 451.26,394.5 l 1.07,1.57 h 104.65 l 1.07,-1.62 c 2.22,-3.37 225.07,-337.49 458.36,-372.84 l 7.77,-1.18 -5.96,-5.12 c -1.85,-1.57 -40.37,-34.37 -69.91,-42.33 63.7,-33.17 410.24,-226.44 523.44,-556.53 62.58,-182.47 44.4,-376.15 -54.04,-575.67 h 33.79 v -57.6 h -28.8 v -396.03 h 705.64 v 1274.48 h -57.6 v 64.8 h 50.4 v 403.23 h -43.2 l 0.14,83.79 c 2.31,8.1 54.44,199.11 -127.33,262.02 l -2.69,0.94 0.28,2.83 c 0.11,1.01 2.75,24.99 25.55,41.86 20.74,15.37 50.91,19.58 89.65,12.53 v 236.87 h -86.41 v 64.8 h 71.72 c -1.8,29.31 -6.34,212.23 151.57,279.65 l 8.49,212.68 34.28,-205.36 c 20.45,-8.89 196.71,-91.7 152.5,-286.97 h 56.67 v -57.6 h -72 v -244.32 c 19.22,2.3 98.5,9.84 123.77,-19.56 8.14,-9.39 10.01,-21.5 5.69,-35.98 l -0.72,-2.41 -2.52,-0.14 c -1.37,-0.08 -133.78,-10.26 -147.82,-248.63 v -89.8 h -36.01 v -139.75 c 4.61,3.62 11.52,8.41 20.09,12.27 20.24,9.25 59.12,16.97 91.88,-35.5 0.07,-0.07 0.14,-0.14 0.14,-0.21 12.96,13.88 65.24,62.57 133.93,28.08 6.84,25.77 45.15,159.74 143.29,321.48 99.73,164.33 283.34,391.63 592.6,544.5 l -60.99,30.52 10.94,1.81 c 2.24,0.36 225.81,42.54 551.99,567.18 l 1.01,1.7 h 169.57 l 1.08,-1.62 c 4.03,-6.09 403.51,-609.11 564.73,-560.17 l 2.52,-6.75 -94.18,-40.35 c 36.94,-21.18 228.76,-133.81 414.14,-288.72 188.8,-157.82 409,-392.95 389.4,-618.87 13.6,17.76 42.7,49.31 78.9,49.78 26.5,0.35 51,-15.91 73.4,-48.33 8,19 36.8,69.51 112.6,54.2 v 107.15 h -36 v 50.4 h 21.8 c 1.7,28.69 8.7,236.51 -141.9,295.47 l -3.4,1.29 1.3,3.32 c 0.2,0.6 22.6,57.93 93.2,39.52 l -7,279.64 h -72 v 50.4 h 78.4 c -4.1,23.3 -19.6,131.65 33.4,196.66 26,31.96 64.7,48.16 115,48.16 53.7,0 96.7,-16.89 128,-50.18 56.2,-59.9 56.4,-152.8 55.7,-173.04 h 64.7 v -50.4 h -72 v -287.75 c 91.4,6 113.7,-29.29 114.7,-30.82 l 1.8,-3.1 -3.1,-1.85 c -143.9,-85.05 -155.6,-281.1 -156.6,-310.12 h 36 v -50.4 h -36 v -410.43 h 50.4 v -50.4 h -43.2 V 3679.43 h 554.4 v 93.6 h 64.8 v 259.22 h -43.2 v 144.01 h 36 v 46.15 c -69,184.33 -87.7,357.57 -55.5,514.85 25.8,126.03 84.2,242.11 173.4,345.01 137.4,158.48 307.4,236.76 339.8,250.71 l -46,39.41 4.4,5.71 c 111,-76.41 473.8,411.85 477.5,416.79 l 1.1,1.47 h 75.4 l 1.1,-1.27 c 360.2,-423.78 492.4,-416.41 493.7,-416.38 l 13.4,1.28 -56.2,-40.17 c 252.5,-115.48 416.5,-277.68 487.3,-482.13 108.9,-314.12 -42.7,-624.69 -51.7,-642.69 v -60.35 h 43.2 v -122.4 h -36 v -288.02 h 525.7 v 43.2 h 115.2 v 403.23 h -57.6 v 36 h 43.2 v 64.8 h 28.5 c -11.5,192.04 188.6,215.78 190.7,215.99 l 1,0.11 0.9,-0.42 c 168.8,-77.86 146.7,-204.01 140,-230.08 h 42.1 v -64.8 h 57.6 v -36 h -64.8 v -410.43 h 115.2 v -36 h 691.4 l 0.6,21.24 56.7,1793.27 h -35.9 v 36 h 36 v 118.81 c 8,52.15 -46.8,90.56 -94.1,113.7 -35.8,17.5 -68.5,26.75 -68.8,26.85 l -2.7,0.73 v 27.93 h 36 v 129.61 h 151.3 l 0.2,7.29 42.9,1779.6 -35.4,14.16 -8.8,35.06 h 52 c 0.5,3.69 1.5,10.57 2.3,19.42 2.5,27.51 4.7,78.69 -9.8,112.37 -17.6,41.16 -126.6,93.25 -159.5,108.24 -7.2,3.28 -11.3,5.06 -11.4,5.08 l -3.5,1.49 15.7,31.47 v 109.79 l 158.4,50.4 v 384.13 l -122.4,72.01 v 25.68 l 165.6,100.81 v 47.89 c -23.1,83.69 -17.4,153.15 16.9,206.46 49.8,77.18 143.6,92.66 144.6,92.8 l 0.3,0.06 0.5,-0.02 c 118.8,-6.42 151.1,342.68 154.4,383.05 0,0.01 0,0.01 0,0.01 v 0 c 0,0.03 0,0.06 0,0.09 l 7.2,-0.51 c -12.7,-215.42 90,-336.54 99.3,-347.04 210.8,-56.87 169.8,-251.92 167.3,-262.82 v -60.79 h 40.6 l 124.5,-73.27 8.3,-32.95 -144.7,-79.56 -14.2,-426.26 h 165.5 V 8165.3 h 28.8 v -43.2 h -18 c -1.1,0.09 -1.4,0.14 -1.9,0.14 -72.7,4.7 -152,-101.86 -160.1,-112.92 v -139.24 h 36 v -64.8 h -28.7 v -0.68 l 50.2,-1799.43 h 158.5 v -108.01 h 21.6 v -43.2 h -25.2 c -18.5,-2 -36.3,-6.75 -52.4,-14.14 -85.7,-39.06 -108.2,-141.76 -109.6,-148.23 v -104.05 h 43.2 v -43.2 h -43.2 V 3693.83 h 183.6 v -111.18 l -3.2,-0.43 c -114.5,-13.46 -165.7,-131.55 -169.6,-141.13 V 3301.4 h 28.8 V 3251 h -21.5 l 50.4,-2094.39 -248,-72.94" /></g></g></g></svg>